<svg viewBox="0 0 512 512" xmlns="http://www.w3.org/2000/svg">
<path d="m0,0h512v512h-512z"/>
<path d="m92,189a24,24 0 1,0 -48,0 24,24 0 1,0 48,0" fill="#fff" transform="matrix(2.61261,0,0,2.61261,-87.06419,-71.99147)"/>
<path d="m330.9539,484.4951h-88.8289a214.2343,214.2343 0 0,0 -214.2342-214.2343v-88.8288a303.0631,303.0631 0 0,1 303.0631,303.0631z" fill="#fff"/>
<g transform="matrix(2.61261,0,0,2.61261,-87.06419,-71.99147)">
<path d="m184,213a140,140 0 0,0 -140-140v-35a175,175 0 0,1 175,175z" fill="#fff"/>
</g>
</svg>
