<svg xmlns="http://www.w3.org/2000/svg" viewBox="0 0 512 512"><path d="m0,0h512v512h-512z"/>
<g stroke="#fff" stroke-linejoin="round">
<path fill="none" stroke-linecap="square" stroke-width="16.113" d="m166,87.375a38.375,30.625 0 1,1 -76.75,0 38.375,30.625 0 1,1 76.75,0z" transform="matrix(1.08979 0 0 1.14517 -2.4597 -9.43405)"/>
<g stroke-width="18">
<path fill="none" d="m38.1838,179.0324c84.5962-147.415 395.3229-219.0586 438.4062-77.0746 20.8141,68.5943-129.355,58.7133-196.7777,86.7422-67.4226,28.0289-140.606,86.4019-190.7168,86.4989-50.1108,.097-78.412-48.2452-50.9117-96.1665z"/>
<path fill="#0f0" d="m104.0979,75.1575c66.1895,28.3589 136.698,65.1831 187.2301,109.4521"/>
<path fill="none" stroke-linecap="round" d="m320.1889,208.1904c112.9001,96.6476 124.0434,155.9545 85.6904,278.3537"/>
</g>
</g>
</svg>
