<svg xmlns="http://www.w3.org/2000/svg" viewBox="0 0 512 512"><path d="m0,0h512v512h-512z"/>
<g transform="matrix(18.68858 0 0 18.68858 -4320.5354 -46957.543)">
<path fill="#fff" d="m255.169,2525.0843c0,5.6802-10.285,13.9638-10.285,13.9638 0,0-10.285-8.2836-10.285-13.9638 0-5.6802 3.0657-11.311 10.285-11.311 7.2192,0 10.285,5.6308 10.285,11.311z"/>
<path stroke="#000" d="m244.8799,2517.7537c-.0413,.032-.0763,.059-.1168,.092-2.4852,1.9447-2.4852,5.0906 0,7.0354 .0405,.031 .0756,.06 .1168,.092 .0413-.031 .0763-.059 .1167-.092 2.4852-1.9448 2.4852-5.0907 0-7.0354-.0405-.032-.0756-.06-.1167-.092z"/>
<path fill="#fff" d="m243.8546,2524.792c0,.9155-.7422,1.6577-1.6577,1.6577-.9155,0-1.6577-.7422-1.6577-1.6577 0-.9155 .7422-1.6577 1.6577-1.6577 .9155,0 1.6577,.7422 1.6577,1.6577z" transform="matrix(.86997 0 0 .86997 34.17675 324.87996)"/>
<path stroke="#000" d="m253.482,2523.9476c-.051-.014-.0894-.036-.1383-.055-2.9268-1.18-5.6512,.393-6.0929,3.5177-.006,.05-.0138,.095-.0213,.1472 .0505,.014 .0891,.037 .1383,.055 2.9269,1.1799 5.6513-.3931 6.0929-3.5177 .009-.052 .0138-.095 .0213-.1472z"/>
<path fill="#fff" d="m243.8546,2524.792c0,.9155-.7422,1.6577-1.6577,1.6577-.9155,0-1.6577-.7422-1.6577-1.6577 0-.9155 .7422-1.6577 1.6577-1.6577 .9155,0 1.6577,.7422 1.6577,1.6577z" transform="matrix(.43498 .75341 -.75341 .43498 2047.2148 1245.0365)"/>
<path stroke="#000" d="m236.4031,2523.9476c.051-.014 .0894-.036 .1383-.055 2.9268-1.18 5.6512,.393 6.0929,3.5177 .006,.05 .0138,.095 .0213,.1472-.0505,.014-.0891,.037-.1383,.055-2.9269,1.1799-5.6513-.3931-6.0929-3.5177-.009-.052-.0138-.095-.0213-.1472z"/>
<path fill="#fff" d="m243.8546,2524.792c0,.9155-.7422,1.6577-1.6577,1.6577-.9155,0-1.6577-.7422-1.6577-1.6577 0-.9155 .7422-1.6577 1.6577-1.6577 .9155,0 1.6577,.7422 1.6577,1.6577z" transform="matrix(-.43498 .75341 .75341 .43498 -1557.3297 1245.0365)"/>
</g>
</svg>
