<svg xmlns="http://www.w3.org/2000/svg" viewBox="0 0 512 512">
<path d="m0,0h512v512h-512z"/>
<g fill="#fff" transform="matrix(18.68858 0 0 18.68858-11800.27-34036.56)">
<g transform="matrix(.06802.99768-.55775.83001 0 0)">
<path d="m2536.74-853.43h6.64v6.645h-6.64z"/>
<path d="m2543.69-846.48h6.64v6.645h-6.64z"/></g>
<g transform="matrix(-.83001.55775-.99768-.06802 0 0)">
<path d="m2908.41-3078.79h6.64v6.65h-6.64z"/>
<path d="m2915.36-3071.84h6.64v6.65h-6.64z"/></g>
<g transform="matrix(.43993.89803.89803.43993 0 0)">
<path d="m2218.56-378.47h6.65v6.645h-6.65z"/>
<path d="m2225.51-371.52h6.65v6.644h-6.65z"/></g>
<path stroke="#000" d="m 644.576,1832.49 -3.537,-1.742 1.739,3.51 -3.269,2.201 3.933,0.26 0.275,3.912 2.163,-3.258 3.537,1.742 -1.731,-3.541 3.261,-2.17 -3.903,-0.252 -0.2745,-3.9115 z"/></g></svg>
