<svg xmlns="http://www.w3.org/2000/svg" viewBox="0 0 512 512"><path d="m0,0h512v512h-512z"/>
<g fill="#fff" transform="matrix(18.68858 0 0 18.68858 -5681.3498 -42186.4505)">
<path d="m323.4405,2272.2954-1.1002-.023-2.2307,1.8002c2.041,2.3193 2.8229,7.047-1.5337,7.9647 3.8025,1.7784 5.969-2.4307 5.1149-5.2643 1.79,1.9078 2.1798,4.8166-.8628,6.8172 5.1788,.5866 5.2335-5.805 2.5521-8.5372 2.4339,.4716 4.2191,2.8521 2.6092,6.2494 5.7301-2.2077 .2568-9.3954-4.5489-9.0067z"/>
<path d="m324.5168,2273.0418c-.006-1.9498 2.2522-3.1225 5.4285-.6677 .2049-1.663-2.072-3.8279-4.7031-3.714l-3.5922,3.6242"/>
<path d="m320.6541,2274.7796c-2.2719-3.1467-5.7314-4.473-9.3032-5.6159-2.2969-.735-6.243-1.7519-6.243-1.7519l4.9721-1.5696-3.2696-3.4249 4.0985,.3234 .0213-4.265c0,0 1.9274,3.1316 2.9097,4.8214 1.9108,3.287 7.6592,9.5817 9.558,7.3235"/>
</g>
<g fill="none">
<g stroke="#000" transform="matrix(18.68858 0 0 18.68858 -5681.3498 -42186.4505)">
<path d="m325.2723,2272.153c-.6064,1.2829-1.3793,2.0821-2.6929,2.1458"/>
<path d="m311.0639,2269.523 3.2749-1.113-1.3402-2.6384 5.0781,.025"/>
<path d="m318.7176,2274.3982-1.2253-4.4236 4.6089-.087"/>
</g>
<g transform="matrix(18.68858 0 0 18.68858 -5681.3498 -42186.4505)">
<path stroke="#fff" d="m322.1531,2274.1862c1.3359,.4783 2.4475,.4969 3.4215-.3869"/>
</g>
</g>
</svg>
