<svg xmlns="http://www.w3.org/2000/svg" viewBox="0 0 512 512"><path d="m0,0h512v512h-512z"/>
<g transform="matrix(18.68858 0 0 18.68858 -2271.83327 -24501.30926)">
<g fill="#fff">
<path d="m125.3777,1313.3499c-.2024,7.8572 3.106,15.7934 9.9222,22.5885 6.7761-6.7807 10.122-14.7262 9.9222-22.5885h-19.8444z"/>
<g stroke="#000">
<path d="m145.9795,1323.0715-3.934-.5932-2.3992,5.0565 2.957,2.6523 3.3762-7.1156z"/>
<path d="m130.8371,1318.0906c-.0912,3.7652 1.4,7.0858 4.4724,10.3422 3.0543-3.2496 4.5625-6.5743 4.4724-10.3422z"/>
</g>
<path d="m124.2812,1312.4375c-.0634,2.4599 .1924,4.9315 .75,7.375l3.1562-.7187c-.1822-1.1733-.2803-2.3555-.25-3.5313h2.6562v-3.125h-6.3125zm15.9062,0 0,3.125 2.4688,0c.0298,1.1737-.0357,2.3601-.2188,3.5313l3.125,.7187c.5617-2.4451 .8126-4.9135 .75-7.375h-6.125zm-6.9062,17.5625-2.6562,1.9688c1.347,1.8928 2.9106,3.7293 4.6875,5.5 1.7714-1.7719 3.3093-3.6029 4.6562-5.5l-2.625-1.9375c-.6271,.7713-1.2943,1.5128-2.0312,2.25-.7386-.7361-1.4039-1.512-2.0312-2.2813z"/>
</g>
<g stroke="#000">
<path fill="none" d="m147.4062,1320.2188-4.9688-1.125c.1831-1.1712 .2486-2.3576 .2188-3.5313h-2.4688v-3.9687m-11,21.4375 4.0938-3.0313c.6273,.7693 1.2927,1.5453 2.0312,2.2813 .737-.7372 1.4041-1.4786 2.0312-2.25l4.0625,3m-10.8125-21.4375 0,3.9687-2.6562,0c-.0303,1.1758 .0678,2.3581 .25,3.5313l-5,1.125"/>
<g fill="#fff">
<path d="m133.143,1312.01h4.481v3.45h-4.481z"/>
<path d="m124.6368,1323.0715 3.934-.5932 2.3992,5.0565-2.957,2.6523-3.3762-7.1156z"/>
</g>
</g>
</g>
</svg>
