<svg xmlns="http://www.w3.org/2000/svg" viewBox="0 0 512 512"><path d="m0,0h512v512h-512z"/>
<g transform="matrix(18.68858 0 0 18.68858 -7726.2428 -47620.012)">
<path fill="#fff" d="m427.8723,2554.2356c-3.2048,1.4747-3.1199,4.0628 .2074,5.9242 2.0984-2.6787-1.1123-2.8434-.2074-5.9242z"/>
<path fill="none" stroke="#fff" d="m421.9681,2556.8586c1.6209,1.6022 3.4241,3.1322 5.3133,4.4661l2.9,4.3759 4.5803,3.6497"/>
<g fill="#fff">
<path d="m418.5068,2549.0491-.4362,3.7621-3.7622,.4362c4.15,1.1224 3.013,4.916 7.1931,2.9949 1.5317-4.8188-1.6319-3.6487-2.9948-7.1932z"/>
<path d="m437.2334,2566.5108 2.6882,8.0833-8.1613-2.922 2.0952-1.0205 .4545-1.7793 1.8254-.4211z"/>
<path d="m424.0012,2566.5946c1.4261-3.2886 3.6003-3.0024 4.9482-.2172-2.3737,2.0988-2.3179-1.0113-4.9482,.2172z"/>
</g>
<g fill="none">
<path stroke="#000" d="m417.4725,2552.1116 4.1736,4.4628"/>
<path stroke="#fff" d="m431.1945,2566.3637c-.2938-.8724-.2662-1.7447 .0276-2.6171"/>
</g>
<path fill="#fff" stroke="#000" d="m435.841,2567.9427 1.3809,3.8964-3.8965-1.3808c.301-2.0445 1.033-2.4461 2.5156-2.5156z"/>
</g>
</svg>
