<svg xmlns="http://www.w3.org/2000/svg" viewBox="0 0 512 512"><path d="m0,0h512v512h-512z"/>
<g fill="#fff" transform="matrix(18.68858 0 0 18.68858 714.87741 -340.64229)">
<path fill-rule="evenodd" d="m-28.0246,34.8937c8.8153,13.8836 19.8779-2.5927 9.3185-15.4673 16.8348,18.0778-2.4503,36.1834-9.3185,15.4673z"/>
<path d="m720.2766,28.56c0,1.6597-1.3455,3.0052-3.0052,3.0052s-3.0052-1.3455-3.0052-3.0052 1.3455-3.0052 3.0052-3.0052 3.0052,1.3455 3.0052,3.0052z" transform="matrix(1.36765 0 0 1.36765 -1004.9439 -7.18959)"/>
<path fill-rule="evenodd" d="m-20.6766,28.4115c-8.8153-13.8836-19.8779,2.5927-9.3185,15.4673-16.8348-18.0778 2.4503-36.1834 9.3185-15.4673z"/>
</g>
</svg>
