<svg xmlns="http://www.w3.org/2000/svg" viewBox="0 0 512 512"><path d="m0,0h512v512h-512z"/>
<g transform="matrix(18.68858 0 0 18.68858 -2953.54494 -31325.09014)">
<path fill="#fff" d="m180.4327,1688.1749c0,4.8286-3.9143,8.7429-8.7428,8.7429-4.8285,0-8.7428-3.9143-8.7428-8.7429 0-4.8284 3.9143-8.7428 8.7428-8.7428 4.8285,0 8.7428,3.9144 8.7428,8.7428z"/>
<path fill="none" stroke="#fff" stroke-width=".874" d="m181.1523,1687.9167c0,5.0634-4.1046,9.168-9.1679,9.168-5.0633,0-9.1679-4.1046-9.1679-9.168 0-5.0633 4.1046-9.1679 9.1679-9.1679 5.0633,0 9.1679,4.1046 9.1679,9.1679z" transform="matrix(1.14434 0 0 1.14434 -25.11926 -243.38174)"/>
<path d="m179.36,1703.2188-5.75-8.8126c.5151-.5932 .9304-1.4355 1.1562-2.4062 2.3798,.982 6.3645,.3433 10.2188-1.8125v-11.0313l-6.8438,3.4376c.1408,.3781 .2188,.7464 .2188,1.1562 0,1.846-1.5149,3.4612-3.7188,4.2188-2.0397-1.9853-2.0283-4.2819 .8438-3.7772-.003-1.9978-.8575-2.7961-2.625-2.8438-1.0605-.029-2.4446,.2195-4.1875,.6562 1.9579,3.3942 .7622,3.7213 .3125,5.9648-2.2154-.7545-3.75-2.3668-3.75-4.2188 0-.3935 .1198-.7601 .25-1.125l-6.875-3.4688v11.0313c3.8666,2.1627 7.873,2.8079 10.25,1.8125 .2217,.9707 .6167,1.813 1.125,2.4062l-5.75,8.8126z"/>
<path fill="none" stroke="#fff" d="m179.2524,1703.2188-5.75-8.8126c.5151-.5932 .9304-1.4355 1.1562-2.4062 2.3798,.982 6.3645,.3433 10.2188-1.8125m0-11.0313-6.8438,3.4376c.1408,.3781 .2188,.7464 .2188,1.1562 0,1.846-1.5149,3.4612-3.7188,4.2188-2.0397-1.9853-2.0283-4.2819 .8438-3.7772-.003-1.9978-.8575-2.7961-2.625-2.8438-1.0605-.029-2.4446,.2195-4.1875,.6562 1.9579,3.3942 .7622,3.7213 .3125,5.9648-2.2154-.7545-3.75-2.3668-3.75-4.2188 0-.3935 .1198-.7601 .25-1.125l-6.875-3.4688m0,11.0313c3.8666,2.1627 7.873,2.8079 10.25,1.8125 .2217,.9707 .6167,1.813 1.125,2.4062l-5.75,8.8126"/>
</g>
<g fill="#fff" line-height="normal" color="#000" transform="matrix(18.68858 0 0 18.68858 -2952.68399 -31325.09014)">
<path d="m166.0761,1703.1562 3.8517-5.9417-1.5526,5.5536"/>
<path d="m177.2116,1703.1562-3.8517-5.9417 1.5526,5.5536"/>
</g>
<g fill="#fff" line-height="normal" color="#000" transform="matrix(18.68858 0 0 18.68858 -2952.32853 -31325.09014)">
<path d="m169.3768,1703.0368 1.6721-6.0313 0,5.9118"/>
<path d="m173.8728,1703.0368-1.6721-6.0313 0,5.9118"/>
</g>
<g transform="matrix(18.68858 0 0 18.68858 -2953.54494 -31325.09014)">
<g fill="#fff" line-height="normal" color="#000">
<path d="m177.7575,1692.4557-1.0348-3.5004-.7777,3.5629"/>
<path d="m185.0502,1680.7995-5.1566,2.5513 5.3754-.6763"/>
<path d="m185.1606,1684.0736-5.1499,.5281 5.0249,1.0969"/>
<path d="m185.0044,1686.9945-5.5518-1.0475 5.5518,2.86"/>
<path d="m184.6693,1690.3676-5.8643-3.1959 3.9972,4.4443"/>
<path d="m180.9755,1691.7603-3.1131-3.7666 1.3758,4.4062"/>
<path d="m165.5771,1692.4557 1.0348-3.5004 .7777,3.5629"/>
<path d="m158.2844,1680.7995 5.1566,2.5513-5.3754-.6763"/>
<path d="m158.174,1684.0736 5.1499,.5281-5.0249,1.0969"/>
<path d="m158.3302,1686.9945 5.5518-1.0475-5.5518,2.86"/>
<path d="m158.6653,1690.3676 5.8643-3.1959-3.9972,4.4443"/>
<path d="m162.3591,1691.7603 3.1131-3.7666-1.3758,4.4062"/>
</g>
<path fill="none" stroke="#000" d="m158.474,1676.59h26.432v26.43h-26.432z"/>
</g>
</svg>
