<svg xmlns="http://www.w3.org/2000/svg" viewBox="0 0 512 512"><path d="m0,0h512v512h-512z"/>
<g fill="#fff" fill-rule="evenodd" transform="matrix(18.68858 0 0 18.68858 5162.10355 -13005.64278)">
<path d="m-262.5459,709.8576-7.2384-.2847 6.9097,2.7746-4.4989,5.0164 5.6877-1.9833-.9405,6.4278 4.2701-5.1066 4.5478,5.6847-1.4245-6.8129 5.6972-.2276-5.2714-2.975 4.9665-4.3254-5.6545,1.425 1.8888-5.5612-5.3548,4.9229-6.567-4.7154 2.9824,5.7409z"/>
<path d="m-260.1479,711.6693c-2.1644-16.8013-14.0344-13.2586-14.4735,8.8018-3.4348-28.6105 17.4078-30.5336 17.5296-8.625"/>
</g>
<g stroke="#fff">
<g transform="matrix(18.68858 0 0 18.68858 5162.10355 -13005.64278)">
<path stroke-width=".42" d="m146.5037,714.4756c0,1.0373-.8409,1.8782-1.8783,1.8782-1.0373,0-1.8783-.8409-1.8783-1.8782 0-1.0373 .8409-1.8783 1.8783-1.8783 1.0373,0 1.8783,.8409 1.8783,1.8783z" transform="matrix(2.21095 -.24318 .49685 2.50438 -933.45662 -1042.2052)"/>
</g>
<g fill="none" transform="matrix(18.68858 0 0 18.68858 5162.10355 -13005.64278)">
<path d="m-259.5148,716.6532 2.0014-3.8152-2.0993-2.6492-3.0547,2.1527"/>
<path d="m-258.6406,711.409 3.2344-1.7969"/>
<path d="m-257.625,712.9872 3.125,.5"/>
</g>
</g>
</svg>
