<svg xmlns="http://www.w3.org/2000/svg" viewBox="0 0 512 512"><path d="m0,0h512v512h-512z"/>
<g transform="matrix(18.68858 0 0 18.68858 -909.31547 -27900.12742)">
<path fill="#fff" d="m71.1649,1515.5528c-11.5961,11.5961-29.4009-6.0229-17.7119-17.7119 3.6395-3.6395 7.8515-4.4003 11.5783-3.4004-1.5414,.2439-3.0981,.9891-4.5194,2.4104-7.6869,7.6869 4.0171,19.2687 11.6429,11.6429 1.4095-1.4095 2.1457-2.9581 2.3889-4.4979 .9916,3.7352 .2317,7.9463-3.3788,11.5569z"/>
<path fill="none" stroke="#000" d="m60.9188,1493.5668c-11.9142,4.0579-6.9328,22.7463 5.6463,19.3758 5.1807-1.3882 7.4364-5.4081 7.4352-9.4858"/>
<path d="m61.7851,1515.7943c2.5034-2.5034 6.2744,1.3074 3.7909,3.7909-2.4835,2.4836-6.2943-1.2874-3.7909-3.7909z"/>
<path d="m54.5272,1513.6493c2.5513-2.5513 6.3946,1.3324 3.8635,3.8635-2.5311,2.5311-6.4148-1.3121-3.8635-3.8635z"/>
<path d="m50.374,1508.594c2.1536-2.1535 5.3975,1.1246 3.261,3.261-2.1365,2.1365-5.4146-1.1074-3.261-3.261z"/>
<path d="m49.2429,1502.7055c1.6813-1.6813 4.214,.8781 2.546,2.546-1.668,1.668-4.2274-.8647-2.546-2.546z"/>
<path d="m68.3946,1513.9173c1.9405-1.9406 4.8636,1.0134 2.9385,2.9385-1.9251,1.9251-4.879-.998-2.9385-2.9385z"/>
<path d="m72.3794,1510.8147c1.2797-1.2797 3.2074,.6683 1.9379,1.9379-1.2695,1.2695-3.2176-.6582-1.9379-1.9379z"/>
<path d="m63.5811,1510.2653c.8415-.8415 2.1091,.4395 1.2743,1.2743-.8348,.8348-2.1158-.4328-1.2743-1.2743z"/>
<path d="m60.0252,1508.8551c1.2311-1.2312 3.0857,.6429 1.8643,1.8643-1.2214,1.2213-3.0955-.6332-1.8643-1.8643z"/>
<path d="m57.4082,1506.0947c1.3229-1.3229 3.3158,.6909 2.0034,2.0033-1.3124,1.3125-3.3263-.6804-2.0034-2.0033z"/>
<path d="m56.3712,1502.5625c1.1886-1.1886 2.9791,.6208 1.7999,1.7999-1.1792,1.1792-2.9885-.6113-1.7999-1.7999z"/>
<path d="m56.8223,1498.607c1.1827-1.1827 2.9642,.6176 1.7909,1.791-1.1733,1.1732-2.9736-.6083-1.7909-1.791z"/>
<path fill="#fff" d="m61.3608,1494.0703c3.4592-.2805 5.9776,.3703 7.8983,2.757l-7.4389,.6557c.3763-1.1558-.8039-2.4323-2.1359-1.5313z"/>
<path stroke="#fff" stroke-width="1.079" d="m70.0224,1499.8945c0,2.3861-1.9343,4.3205-4.3204,4.3205-2.3861,0-4.3204-1.9344-4.3204-4.3205 0-2.3861 1.9343-4.3204 4.3204-4.3204 2.3861,0 4.3204,1.9343 4.3204,4.3204z" transform="matrix(.92683 0 0 .92683 4.86919 109.4759)"/>
<path d="m59.4364,1495.8103c1.3224-1.3226 3.3144,.6906 2.0026,2.0024-1.3119,1.3119-3.3249-.6801-2.0026-2.0024z"/>
<path fill="none" stroke="#000" d="m59.2346,1494.2701c1.4586-.5807 2.9605-.7439 4.4521-.7507"/>
</g>
</svg>
