<svg xmlns="http://www.w3.org/2000/svg" viewBox="0 0 512 512"><path d="m0,0h512v512h-512z"/>
<g fill-rule="evenodd" transform="matrix(18.68858 0 0 18.68858 -3629.11256 -19086.32258)">
<path fill="#fff" d="m195.3125,1022.0625v8.3125c4.0231.9091 8.2995,2.4661 12.375,4.7813-2.8944-1.0675-6.0869-1.7198-9.375-1.8125 7.9957,2.748 17.7215,7.524 22.4375,14-2.8762-10.4226-13.3042-20.5379-21.9375-25.2813h-3.5z"/>
<path d="m194.5312,1022.1711v3.8437c6.2477,1.8172 12.8843,5.0111 18.4375,9.6563-3.8563-5.2865-11.2149-10.348-18.4375-13.5z"/>
<path fill="#fff" d="m215.9375,1021.8125c-3.5812,11.7961-10.6415,22.4004-20.5312,25.0625 8.0416,2.2637 20.2236-.9482 24.7188-8.0937-2.9712,2.0138-6.2952,3.7456-9.9062,5.125 4.1809-2.6095 8.0143-6.407 11-10.5938v-11.5h-5.2812z"/>
<path d="m204.154,1044.8208c6.6831-2.7058 13.3799-8.1426 17.4086-14.0554v-9.3746c-2.4076,6.5039-10.6684,17.7872-17.4086,23.43z"/>
</g>
<g transform="matrix(18.68858 0 0 18.68858 -3629.11256 -19086.32258)">
<path fill="none" stroke="#000" d="m194.8834,1021.6587h26.4314v26.4314h-26.4314z"/>
</g>
<g fill-rule="evenodd" transform="matrix(18.68858 0 0 18.68858 -3629.11256 -19086.32258)">
<path fill="#fff" d="m207.068,1039.479c4.8111-2.8327 9.6777-6.9634 13.2776-12.0878-2.4099,6.683-9.4922,13.7697-16.083,17.4085h-1.4274l4.2328-5.3207z"/>
<path d="m221.7812,1032.6892c-3.0601,4.3639-7.6905,8.6898-13.3687,11.9358 5.7306-1.7586 10.1436-3.6454 13.3687-7.4795v-4.4563z"/>
</g>
</svg>
