<svg xmlns="http://www.w3.org/2000/svg" viewBox="0 0 512 512"><path d="m0,0h512v512h-512z"/>
<g fill="#fff" stroke="#000" transform="matrix(18.68858 0 0 18.68858 -230.20194 -4101.79977)">
<path d="m12.7918,220.2077 0,2.1399 11.9786,11.6884 1.7999-1.2668-12.8713-12.5615-.9072,0z"/>
<path d="m15.2356,229.4258c-.0905,6.5764 8.0489,8.0584 8.7181,14.9565 4.4935-6.5863 11.6227-9.15 11.7109-15.3312 .094-6.5896-7.4871-7.7151-10.2675-2.3174-2.9552-5.7823-10.0765-3.4772-10.1614,2.692z"/>
<path d="m26.3659,232.5863c-.834-.8172-2.4699,.6087-1.5456,1.5144l4.1663,4.0494c2.8352,2.7781 2.537,3.7766 .2016,4.8724 2.5697,1.713 6.5841,3.2932 9.9118,3.4897 .145-3.3509-1.6984-7.1064-3.5615-9.679-.588,1.669-1.3741,3.4346-5.0063-.1975l-4.1663-4.0494z"/>
</g>
</svg>
