<svg xmlns="http://www.w3.org/2000/svg" viewBox="0 0 512 512"><path d="m0,0h512v512h-512z"/>
<g transform="matrix(18.68858 0 0 18.68858 -5675.93344 -26547.33832)">
<g fill="#fff">
<path d="m324.286,1421.5462 .0001,2.8495-19.6766-1.4248z"/>
<path d="m322.6625,1424.9006 0,2.6144-18.0531-1.3072z"/>
<path d="m324.1289,1428.0316 0,2.8268-19.5195-1.4134z"/>
<path d="m322.6625,1431.3746 0,2.6144-18.0531-1.3072z"/>
<path d="m322.6625,1434.4353 0,2.6144-18.0531-1.3072z"/>
<path d="m322.6625,1437.6721 0,2.6144-18.0531-1.3072z"/>
<path d="m322.6625,1440.9093 0,2.6144-18.0531-1.3072z"/>
<path d="m322.6625,1444.1462 0,2.6143-18.0531-1.3072z"/>
<path fill-rule="evenodd" stroke="#000" d="m324.981,1420.9441c1.6607,.2158 2.9572,2.0227 2.9572,4.2037-0,1.2078-.4137,2.2862-1.0509,3.0548 3.4536,.6498 3.7148,6.4714 3.7148,10.5579h-2.3951l-.6354,8.5295h-6.0855l-.5621-8.5295h-2.2729c0-4.098-.0823-10.0216 3.6904-10.6068-.6098-.765-1.002-1.828-1.002-3.0059 0-2.3263 1.4807-4.2037 3.2993-4.2037 .1135,0 .2314-.017 .3422,0z"/>
</g>
<path d="m321.344,1427.3678-0,1.4509 4.1082-.7255z"/>
<path d="m321.3493,1423.83-0,1.5645 4.6955-.7823z"/>
<path d="m319.4924,1430.2834-0,1.6191 5.5678-.8096z"/>
<path d="m318.5284,1433.4215-0,1.7125 6.9968-.8563z"/>
<path d="m318.553,1436.4222-0,1.9325 6.7174-.9663z"/>
<path d="m320.8021,1439.9036-0,1.4133 5.0939-.7067z"/>
<path d="m321.2095,1443.1752-0,1.3137 4.5556-.6569z"/>
</g>
</svg>
