<svg xmlns="http://www.w3.org/2000/svg" viewBox="0 0 512 512"><path d="m0,0h512v512h-512z"/>
<g transform="matrix(18.68858 0 0 18.68858 -2273.78961 -44231.86588)">
<g fill="none" stroke="#fff">
<path d="m140.7584,2393.6996 0-14.4073"/>
<path d="m147.1224,2393.6112 .0728-20.9093"/>
<path d="m143.5869,2393.3461 0-17.059"/>
</g>
<path fill="#fff" d="m146.7366,2389.8309c-.2396-3.2797-2.3608-2.7519-2.6629-.094l-.9556-3.1199c.0984-4.6768-1.5799-5.8009-1.8503-2.7864l-.4192-4.3602 6.1826-6.2801z"/>
<g stroke="#fff">
<path stroke-width=".877" d="m146.0625,2381.3467c0,1.3548-.5456,2.4531-1.2188,2.4531-.6731,0-1.2188-1.0983-1.2188-2.4531 0-1.3548 .5456-2.4531 1.2188-2.4531 .6731,0 1.2188,1.0983 1.2188,2.4531z" transform="matrix(1.23077 0 0 1.05732 -33.58173 -135.55719)"/>
<path stroke-width="1.245" d="m146.0625,2381.3467c0,1.3548-.5456,2.4531-1.2188,2.4531-.6731,0-1.2188-1.0983-1.2188-2.4531 0-1.3548 .5456-2.4531 1.2188-2.4531 .6731,0 1.2188,1.0983 1.2188,2.4531z" transform="matrix(1.0521 0 0 .61349 -6.60372 917.60013)"/>
</g>
<path fill="#fff" d="m140.2723,2385.5679c-.1031-1.6434-1.7088-1.1853-2.0771,2.3865-.588-3.5505-1.68-4.1302-2.6738-2.8285l5.1486-5.7453z"/>
<g stroke="#fff">
<path d="m147.623,2368.5069-4.2509,.3924-14.1065,14.107c-1.0224-1.3927-1.8264-2.8898-2.2987-4.3835-3.9886,3.1782-1.0588,5.811 1.2831,7.1631-1.4243,1.9325-3.0887,3.4249-4.811,4.8109-0,1.3789 .8354,2.0583 2.058,2.0582 1.3484-1.8161 2.864-3.4935 4.8109-4.8109 1.1454,1.9838 3.5097,5.2035 7.2966,1.4166-1.5957-.5043-3.1037-1.3666-4.5169-2.4323l14.1065-14.1069z"/>
<path fill="none" d="m130.8142,2385.2949 14.139-14.1389"/>
</g>
</g>
</svg>
