<svg xmlns="http://www.w3.org/2000/svg" viewBox="0 0 512 512"><path d="m0,0h512v512h-512z"/>
<g transform="matrix(18.68858 0 0 18.68858 -2949.86848 -36763.83726)">
<g fill="#fff">
<path d="m158.571,1975.29h26.055v7.46h-26.055z"/>
<path d="m-860.613,2576.76h10.156v11.77h-10.156z" transform="matrix(.85812 .51345 .35068 .93649 0 0)"/>
<path d="m1968.25-175.377h25.2v7.912h-25.2z" transform="rotate(90)"/>
<path d="m-1375.88,2859.27h10.16v11.76h-10.16z" transform="matrix(-.85812 .51345 -.35068 .93649 0 0)"/>
<path d="m168.0625,1982-2.4062,11.7812 11.875,0-3.125-11.7812-6.3438,0z"/>
</g>
<path d="m167.2812,1976.9375 1.6533,9.0556-.7158,8.0069 6.5625,0-.9208-8.0381 2.1396-9.0244z"/>
<path d="m174.1296,1972.8033c0,1.6627-.9661,3.0105-2.158,3.0105-1.1918,0-2.158-1.3478-2.158-3.0105 0-1.6626 .9662-3.0105 2.158-3.0105 1.1918,0 2.158,1.3479 2.158,3.0105z" transform="matrix(1.15626 0 0 1.15626 -27.35103 -307.86869)"/>
<g fill="#fff">
<path d="m183.4686,1985.6219-7.4883-4.4114-.5619,2.9553z"/>
<path d="m159.8597,1985.6219 7.4883-4.4114 .5619,2.9553z"/>
<path d="m183.4686,1972.6202-7.4883,4.4114-.5619-2.9553z"/>
<path d="m159.8597,1972.6202 7.4883,4.4114 .5619-2.9553z"/>
</g>
<g line-height="normal" color="#000">
<path d="m171.4169,1975.4626 6.9084,2.0865 6.0666-.8169 0,2.3898-6.0666,1.2115-6.9084-1.6347z"/>
<path d="m171.7325,1975.4626-6.9084,2.0865-6.0666-.8169 0,2.3898 6.0666,1.2115 6.9084-1.6347z"/>
</g>
<path fill="none" stroke="#000" d="m158.413,1967.79h26.432v26.43h-26.432z"/>
</g>
</svg>
