<svg xmlns="http://www.w3.org/2000/svg" viewBox="0 0 512 512"><path d="m0,0h512v512h-512z"/>
<g transform="matrix(18.68858 0 0 18.68858 720.5052 -12365.93557)">
<path fill="#fff" d="m-37.3107,670.4175 9.7448,4.1843-9.543-11.5794 12.0233,9.4118-3.571-9.5795 7.373,9.5911-.0599-7.5079 3.9765,9.695 2.3754-4.1473 .4121,7.8155 2.962-.5647-2.1884,4.5493 1.5134,2.1026-2.9994,.9334-1.5104,3.0075-1.7634-1.8841-5.1493,1.863 1.1271-3.0087-8.248-.9678 4.7545-2.0834-9.8228-4.586 7.9671,.598-9.3735-7.8428z"/>
</g>
<g stroke="#fff" transform="matrix(18.68858 0 0 18.68858 720.5052 -12365.93557)">
<path stroke-width=".859" d="m386.7857,681.313c0,2.1081-1.7089,3.817-3.817,3.817-2.108,0-3.817-1.7089-3.817-3.817 0-2.1081 1.7089-3.817 3.817-3.817 2.108,0 3.817,1.7089 3.817,3.817z" transform="matrix(1.16374 0 0 1.16374 -464.3522 -111.40761)"/>
<path fill="#fff" stroke-width=".745" d="m385.3125,680.7327c0,1.1218-.9094,2.0312-2.0312,2.0312-1.1218,0-2.0312-.9094-2.0312-2.0312 0-1.1218 .9094-2.0312 2.0312-2.0312 1.1218,0 2.0312,.9094 2.0312,2.0312z" transform="matrix(1.34167 0 0 1.34167 -533.80874 -232.80094)"/>
</g>
<g transform="matrix(18.68858 0 0 18.68858 720.5052 -12365.93557)">
<path d="m385.3125,680.7327c0,1.1218-.9094,2.0312-2.0312,2.0312-1.1218,0-2.0312-.9094-2.0312-2.0312 0-1.1218 .9094-2.0312 2.0312-2.0312 1.1218,0 2.0312,.9094 2.0312,2.0312z" transform="matrix(1.39959 1.39959 -.60554 .60554 -145.6101 -270.01097)"/>
</g>
</svg>
