<svg xmlns="http://www.w3.org/2000/svg" viewBox="0 0 512 512"><path d="m0,0h512v512h-512z"/>
<g transform="matrix(18.68858 0 0 18.68858 -3839.36211 -47256.87879)">
<g fill="#fff">
<path d="m222.458,2539.1514c-6.2092,2.7914-13.1834,10.6278-16.0881,15.7789 .547-4.364 8.0832-16.4937 15.0634-19.0932"/>
<path d="m210.446,2535.2c3.5078,4.4948 5.2796,9.7342 7.0819,14.9604-.2348-5.6952 .0346-11.5545-7.0819-14.9604z"/>
<path stroke="#000" d="m218.3089,2531.41c4.6602-1.9771 8.1737-2.4833 13.9819-2.0679-.2443,5.8494-2.3481,11.4285-7.4684,16.5688-3.8754,5.0933-10.8441-8.4357-6.5135-14.5009z"/>
</g>
<path d="m210.8477,2524.4836a1.5266,2.4701 0 1,1 -3.0532,0 1.5266,2.4701 0 1,1 3.0532,0z" transform="matrix(1.17364 .67648 -.59721 1.03269 1482.8961 -213.7982)"/>
<path d="m230.5512,2536.9695-1.9455-4.1908-1.6347,3.947-1.5334-2.0732-1.4057,4.6733-1.0081-1.6605-2.6722,4.8787 2.6318-2.4705 .9874,1.6247 2.1532-3.9594 1.0983,2.1801 1.399-2.7822 .763,1.8549z"/>
<g fill="#fff">
<path d="m206.9969,2544.9046c2.1955,2.4291 3.4779,4.557 5.1886,6.9329-.6095-3.044-.7287-5.6136-5.1886-6.9329z"/>
<path d="m206.4445,2549.5286c1.061,1.0379 2.1329,2.1289 3.5122,3.3475-.419-2.5221-1.1762-2.9702-3.5122-3.3475z"/>
<path d="m207.6152,2540.3082c3.2542,3.3572 5.1563,6.4245 7.0841,10.5274-.6068-4.5861-.7933-8.2968-7.0841-10.5274z"/>
</g>
</g>
</svg>
