<svg xmlns="http://www.w3.org/2000/svg" viewBox="0 0 512 512"><path d="m0,0h512v512h-512z"/>
<g transform="matrix(18.68858 0 0 18.68858 -8396.60463 -27902.12862)">
<path fill="#fff" d="m452.4375,1493.5312c1.0564,2.8265 2.9752,5.4837 5.6875,7.25 .0315-2.6971-.0266-4.8963 .4833-7.25zm7.9375,0c.9848,2.0205 1.287,4.1725 2.0625,6.1876 1.9358-2.196 2.9517-4.1606 3.1028-6.1876zm7.9292,0c-1.0567,2.0893-1.6762,4.7467-2.1792,7.8126 3.882-1.9351 6.9592-4.3428 8.2188-7.8126zm8.0396,3.1563c-2.4499,.9741-4.819,2.9746-6.3438,5.9375 2.3566,.036 4.5124-.2416 6.3438-1.0312zm-26.4375-.8735 0,6.6548c1.7157,.7757 3.7375,1.2001 5.9375,1.0937-1.5702-2.8168-3.967-5.7219-5.9375-7.7485zm26.4375,9.2172c-2.0469,.2022-4.1276,1.0942-6.2188,2.3438 2.0251,1.3036 4.1895,1.9474 6.2188,2.0625zm-26.4375,.2188 0,4.0625c1.6663-.3872 3.3695-.9887 5-1.9375-1.6781-1.0028-3.3471-1.7563-5-2.125zm0,6.875 0,5.0312c2.515-1.0212 4.3954-3.271 5.9688-6.0937-2.0376,.1657-4.3047,.6323-5.9688,1.0625zm18.5076-.6392c2.4032,3.305 4.7832,5.1109 7.9299,7.1114v-4.8859c-2.7702-1.4801-4.761-1.8464-7.9299-2.2255zm-8.7264,1.6394c-3.4939,1.6308-6.0859,4.2085-7.5,6.8438h4.9062c1.3476-1.9291 2.1208-4.2744 2.5938-6.8438zm6.5625,.8438c-.1078,2.2268 .3311,4.2709 1.125,6h6.5806c-2.5463-2.1687-5.1229-4.0976-7.7056-6zm-3.8125,.9687c-1.0559,1.6403-1.6761,3.3555-1.9375,5.0313h4.0625c-.3646-1.6578-1.118-3.3464-2.125-5.0313z"/>
</g>
<g fill="#fff" stroke="#000" transform="matrix(18.68858 0 0 18.68858 -8369.03401 -27880.46598)">
<path d="m1336.29-836.238h3.28v7.488h-3.28z" transform="rotate(105)"/>
<path d="m830.958,1329.83h2.702v7.63h-2.702z" transform="rotate(15)"/>
<path d="m833.66,1329.83h2.701v7.63h-2.701z" transform="rotate(15)"/>
<path d="m836.361,1329.83h2.701v7.63h-2.701z" transform="rotate(15)"/>
<path d="m839.062,1329.83h2.701v7.63h-2.701z" transform="rotate(15)"/>
</g>
<g fill="none" transform="matrix(18.68858 0 0 18.68858 -8396.60463 -27902.12862)">
<path stroke="#000" d="m449.912,1493.53h26.432v26.43h-26.432z"/>
<path stroke="#fff" stroke-width=".902" d="m472.4011,1507.7977c0,5.3542-4.3404,9.6946-9.6946,9.6946-5.3542,0-9.6946-4.3404-9.6946-9.6946 0-5.3542 4.3404-9.6946 9.6946-9.6946 5.3542,0 9.6946,4.3404 9.6946,9.6946z" transform="matrix(1.1087 0 0 1.1087 -49.76731 -164.62869)"/>
</g>
</svg>
