<svg xmlns="http://www.w3.org/2000/svg" viewBox="0 0 512 512"><path d="m0,0h512v512h-512z"/>
<g transform="matrix(18.68858 0 0 18.68858 -11811.77852 -42868.11945)">
<g fill="#fff">
<path d="m632.8745,2320.2742 25.4085,.0002-12.7044-24.7206z"/>
<path d="m637.0595,2297.3046c-.3038,.7032-.4783,1.438-.4783,2.2215 0,3.8575 3.9931,6.9857 8.9171,6.9857 4.924,0 8.9171-3.1282 8.9171-6.9857 0-.7826-.1752-1.5189-.4783-2.2215 .0004,.027 0,.053 0,.081 0,3.6511-3.7783,6.611-8.4388,6.611-4.6605,0-8.4388-2.9599-8.4388-6.611 0-.027-.0004-.053 0-.081z"/>
</g>
<g stroke="#000">
<g fill="none">
<path d="m645.4913,2295.1082-8.1547,25.7918"/>
<path d="m645.5697,2295.1083 8.4683,25.7916"/>
<path d="m645.4913,2295.1082 3.1422,25.7918"/>
<path d="m645.6659,2295.1082-3.1423,25.7917"/>
</g>
<path fill="#fff" stroke-width=".864" d="m658.4143,2307.5535c0,1.1503-.9325,2.0828-2.0829,2.0828-1.1503,0-2.0829-.9325-2.0829-2.0828 0-1.1504 .9325-2.0829 2.0829-2.0829 1.1503,0 2.0829,.9325 2.0829,2.0829z" transform="matrix(0 -1.15741 1.15741 0 -2025.1816 3056.3535)"/>
</g>
</g>
</svg>
