<svg xmlns="http://www.w3.org/2000/svg" viewBox="0 0 512 512"><path d="m0,0h512v512h-512z"/>
<g fill="#fff" transform="matrix(24.41672 0 0 24.41672 -7794.95057 -20243.70699)">
<path d="m336.8982,842.8326-6.6909-1.4019-3.4552,5.9193-.7343-6.7967-6.6973-1.457 6.2371-2.7987-.6839-6.8197 4.5891,5.067 6.2746-2.7579-3.4009,5.9303z" transform="matrix(.53215 -.92106 -.92171 -.53178 927.31592 1588.6524)"/>
<g stroke="#000">
<path stroke-width=".956" d="m336.8982,842.8326-6.6909-1.4019-3.4552,5.9193-.7343-6.7967-6.6973-1.457 6.2371-2.7987-.6839-6.8197 4.5891,5.067 6.2746-2.7579-3.4009,5.9303z" transform="matrix(.40065 .69285 -.69395 .40002 779.65713 276.95945)"/>
<g stroke-width=".629">
<path d="m326.4624,846.9697c0,.72-.5837,1.3037-1.3037,1.3037-.72,0-1.3037-.5837-1.3037-1.3037 0-.72 .5837-1.3037 1.3037-1.3037 .72,0 1.3037,.5837 1.3037,1.3037z" transform="matrix(1.21607 0 0 -1.21607 -65.65228 1876.4814)"/>
<path d="m326.4624,846.9697c0,.72-.5837,1.3037-1.3037,1.3037-.72,0-1.3037-.5837-1.3037-1.3037 0-.72 .5837-1.3037 1.3037-1.3037 .72,0 1.3037,.5837 1.3037,1.3037z" transform="matrix(1.21607 0 0 -1.21607 -59.65904 1872.0652)"/>
<path d="m326.4624,846.9697c0,.72-.5837,1.3037-1.3037,1.3037-.72,0-1.3037-.5837-1.3037-1.3037 0-.72 .5837-1.3037 1.3037-1.3037 .72,0 1.3037,.5837 1.3037,1.3037z" transform="matrix(1.21607 0 0 -1.21607 -71.77728 1872.0362)"/>
<path d="m326.4624,846.9697c0,.72-.5837,1.3037-1.3037,1.3037-.72,0-1.3037-.5837-1.3037-1.3037 0-.72 .5837-1.3037 1.3037-1.3037 .72,0 1.3037,.5837 1.3037,1.3037z" transform="matrix(1.21607 0 0 -1.21607 -69.35977 1865.0552)"/>
<path d="m326.4624,846.9697c0,.72-.5837,1.3037-1.3037,1.3037-.72,0-1.3037-.5837-1.3037-1.3037 0-.72 .5837-1.3037 1.3037-1.3037 .72,0 1.3037,.5837 1.3037,1.3037z" transform="matrix(1.21607 0 0 -1.21607 -61.98829 1865.0697)"/>
</g>
</g>
</g>
</svg>
