<svg xmlns="http://www.w3.org/2000/svg" viewBox="0 0 512 512"><path d="m0,0h512v512h-512z"/>
<g transform="matrix(18.68858 0 0 18.68858 -10445.75498 -41515.26483)">
<g stroke="#000">
<path fill="#fff" d="m561.7651,2225.1562c-2.9357,4.8845-1.6783,11.9961 2.5625,17.75l-.1875,3.0938c1.5502,2.9577 14.9158,3.1485 17.875,.094l-.4688-3.1876c4.4411-5.82 5.5683-12.8105 2.4688-17.75h-22.25z"/>
<g fill="none">
<path d="m581.7212,2242.7087c-4.841,3.9569-12.6899,3.9572-17.5309,0"/>
<path d="m577.8168,2238.4203c-2.7919-2.0805-7.3185-2.0806-10.1105,0"/>
<path d="m572.7616,2245.5582 0-8.6995"/>
<path d="m571.2251,2228.3053c0,0 .5771,3.2198 .5771,4.5289 0,2.7615-4.0678,4.024-9.4478,2.7257"/>
<path d="m574.2951,2228.3053c0,0-.5771,3.2198-.5771,4.5289 0,2.7615 4.0678,4.024 9.4478,2.7257"/>
<path d="m575.606,2242.7572c-1.5709,.1153-4.1179,.1153-5.6889,0"/>
<path d="m575.606,2240.0439c-1.5709-.4813-4.1179-.4813-5.6889,0"/>
</g>
</g>
<path d="m563.4591,2223.2275c4.0122,2.7016-.007,10.0649-3.6226,11.8395l.2849-6.0507 1.1455-3.3937z"/>
<path d="m582.3134,2223.2275c-4.0122,2.7016 .007,10.0649 3.6226,11.8395l-.2849-6.0507-1.1455-3.3937z"/>
<g stroke="#fff">
<path d="m580.2582,2225.541c0-1.7119-3.3079-2.5653-7.3885-2.5653-4.0805,0-7.3884,.8534-7.3884,2.5653 0,1.7119 3.3079,3.0994 7.3884,3.0994 4.0806,0 7.3885-1.3875 7.3885-3.0994z"/>
<g fill="none">
<path d="m579.6889,2226.5183c-3.8258-1.8609-10.0288-1.8611-13.8547,0"/>
<path d="m561.9242,2235.2521c1.2166,1.0611 2.5263,1.7454 4.3094,1.8665"/>
<path d="m583.581,2235.2521c-1.2166,1.0611-2.5263,1.7454-4.3094,1.8665"/>
<path d="m578.4405,2238.6289c-1.444-.389-3.0465-.6345-5.0472-.6892"/>
<path d="m567.1076,2238.6289c1.444-.389 3.0465-.6345 5.0472-.6892"/>
</g>
</g>
</g>
</svg>
