<svg xmlns="http://www.w3.org/2000/svg" viewBox="0 0 512 512"><path d="m0,0h512v512h-512z"/><g transform="matrix(18.68858 0 0 18.68858-9760.89-27902.13)"><path fill="none" stroke="#fff" d="m535.06 1494.18v3.964"/><g fill="#fff"><path d="m530.93 1512.45c-4.128-3.829-4.37-10.28-.541-14.408 3.829-4.128 10.28-4.37 14.408-.541 2.08 1.929 3.262 4.638 3.262 7.474h-10.195z" transform="matrix(1.11477 0 0 1.11477-64.56-170.04)"/><path d="m528.64 1500.64c2.027-4.312 6.771-6.645 11.425-5.618l-2.198 9.955z" transform="matrix(-1.11477 0 0-1.11477 1134.81 3185.6)"/></g><path stroke="#fff" stroke-width=".897" d="m548.06 1504.98c0 5.631-4.564 10.195-10.195 10.195-5.631 0-10.195-4.564-10.195-10.195 0-5.631 4.564-10.195 10.195-10.195 5.631 0 10.195 4.564 10.195 10.195z" transform="matrix(.92753 0 0 .92753 36.14 111.71)"/><path fill="#fff" d="m528.64 1500.64c2.027-4.312 6.771-6.645 11.425-5.618l-2.198 9.955z" transform="matrix(-1.11477 0 0-1.11477 1134.81 3185.6)"/><path d="m548.06 1504.98c0 5.631-4.564 10.195-10.195 10.195-5.631 0-10.195-4.564-10.195-10.195 0-5.631 4.564-10.195 10.195-10.195 5.631 0 10.195 4.564 10.195 10.195" transform="matrix(.69126 0 0 .69126 163.23 467.46)"/><g fill="none" stroke="#fff"><path d="m540.36 1507.6c0 2.948-2.393 5.341-5.341 5.341-2.948 0-5.341-2.393-5.341-5.341 0-1.563.687-2.968 1.758-3.944"/><path stroke-width="1.231" d="m538.37 1507.19c0 1.877-1.521 3.398-3.398 3.398-1.877 0-3.398-1.522-3.398-3.398 0-1.877 1.521-3.398 3.398-3.398 1.877 0 3.398 1.522 3.398 3.398z" transform="matrix(.81231 0 0 .81231 100.53 283.49)"/><path d="m528.6 1514.27l-3.177 3.177"/><path d="m548.22 1504.28l-4.357.514"/><path d="m547.24 1513.92l-5.732-2.468"/></g><path fill="#fff" d="m535.6 1508.58c0 .793-.643 1.436-1.436 1.436-.793 0-1.436-.643-1.436-1.436 0-.793.643-1.436 1.436-1.436.793 0 1.436.643 1.436 1.436" transform="translate(1.658.473)"/><g fill="none"><path stroke="#fff" d="m538.37 1494.62l-.832 3.103"/><g stroke="#000"><path d="m528.67 1496.68l2.698 4.673"/><path d="m526.02 1498.71l3.938 3.938"/><path d="m523.99 1501.36l4.486 2.59"/></g></g></g></svg>