<svg xmlns="http://www.w3.org/2000/svg" viewBox="0 0 512 512"><path d="m0,0h512v512h-512z"/>
<g transform="matrix(18.68858 0 0 18.68858 -227.68306 -31325.36078)">
<g line-height="normal" color="#000">
<path fill="#fff" d="m25.8703,1702.079c-6.8322,0-12.431-5.5153-12.431-12.3476 0-6.8322 5.5988-12.4312 12.431-12.4312 6.8322,0 12.3476,5.599 12.3476,12.4312 0,6.8323-5.5154,12.3476-12.3476,12.3476z"/>
<path d="m25.8703,1699.9932c5.6932,0 10.2618-4.5687 10.2618-10.2618 0-5.6931-4.5686-10.3453-10.2618-10.3453-5.6932,0-10.3453,4.6522-10.3453,10.3453 0,5.6931 4.652,10.2618 10.3453,10.2618z"/>
</g>
<path fill="#fff" d="m24.7674,1693.5399c0,2.3458-1.9017,4.2475-4.2475,4.2475-2.3458,0-4.2475-1.9017-4.2475-4.2475 0-2.3458 1.9017-4.2474 4.2475-4.2474 2.3458,0 4.2475,1.9016 4.2475,4.2474z" transform="matrix(2.1075 0 0 -2.1075 -17.40559 5256.8475)"/>
<path line-height="normal" color="#000" d="m25.8125,1681.6875-6.2188,6.3125 1.3438,1.4062 3.3438-1.9062 0,9.7188 3.0312,0 0-9.9063 3.5,2.0313 1.2812-1.3438z"/>
</g>
</svg>
