<svg xmlns="http://www.w3.org/2000/svg" viewBox="0 0 512 512"><path d="m0,0h512v512h-512z"/>
<g transform="matrix(18.68858 0 0 18.68858 -12488.26009 -43546.76981)">
<path stroke="#fff" d="m681.2626,2341.1574c-3.0576,4.3857-3.0346,9.6546 0,14.0476 3.2314-4.4763 3.2596-9.7842 0-14.0476z"/>
<path fill="#fff" d="m671.1946,2349.5739c-1.4441-4.6472-1.2689-7.5277 .7913-12.492 1.6621,1.1957 3.116,2.4641 4.3963,3.8347 .7869-3.2456 2.3471-6.4017 4.7481-9.3652 2.3207,2.8448 3.9188,5.83 4.748,8.9226 1.6038-2.0926 3.6495-4.0124 6.067-5.7518 2.0806,5.0135 2.2835,10.0631 .7913,14.7484 .0928-2.8018-.397-5.6969-1.5827-8.554-2.2228,1.599-4.1525,3.3116-5.6273,5.2355-.7623-2.8431-2.1745-5.5694-4.3084-8.1852-2.2076,2.7252-3.6729,5.6438-4.3963,8.6279-1.1771-1.2603-2.5163-2.4405-4.0446-3.5395-.7556,1.721-1.5827,6.5186-1.5827,6.5186z"/>
<g stroke="#fff">
<path d="m690.2149,2344.3217c-3.9727,2.9011-5.3289,7.1406-3.6725,11.2909 3.9175-2.9041 5.3273-7.164 3.6725-11.2909z"/>
<path d="m673.6149,2345.9929c3.2458,2.4417 4.3539,6.0098 3.0005,9.5027-3.2007-2.4439-4.3525-6.0292-3.0005-9.5027z"/>
</g>
</g>
</svg>
