<svg xmlns="http://www.w3.org/2000/svg" viewBox="0 0 512 512"><path d="m0,0h512v512h-512z"/>
<g fill="#fff">
<g fill-rule="evenodd" transform="matrix(18.68858 0 0 18.68858 -7035.38292 -9551.58567)">
<path d="m377.4978,528.9895c2.5922-2.1929 11.1463-.543 12.8924,7.3528 1.8101-7.6134 8.2035-9.279 12.7967-6.8052l-2.2878-5.2231c-6.8233,5.7406-13.9456,5.9478-21.3343-.0633l-2.067,4.7387z"/>
<path d="m377.4978,518.257c2.5922,2.1929 8.0206-1.8286 12.8924-1.8286 4.9602,0 8.2035,3.7547 12.7967,1.2809l-2.2878,5.2231c-6.8233-5.7406-13.9456-5.9478-21.3343,.0633l-2.067-4.7387z"/>
<path stroke="#000" d="m378.5709,523.6587c7.8333,5.9921 15.6042,6.1764 23.5,0-8-6.3005-15.8333-6.301-23.5,0z"/>
</g>
<g transform="matrix(18.68858 0 0 18.68858 -7035.38292 -9551.58567)">
<path stroke="#000" stroke-width="1.383" d="m187.3833,84.0047c0,3.0684-2.4874,5.5558-5.5558,5.5558-3.0684,0-5.5558-2.4874-5.5558-5.5558 0-3.0684 2.4874-5.5558 5.5558-5.5558 3.0684,0 5.5558,2.4874 5.5558,5.5558z" transform="matrix(.80403 0 0 .80403 244.14777 456.10189)"/>
</g>
</g>
<g transform="matrix(18.68858 0 0 18.68858 -7035.38292 -9551.58567)">
<path d="m187.3833,84.0047c0,3.0684-2.4874,5.5558-5.5558,5.5558-3.0684,0-5.5558-2.4874-5.5558-5.5558 0-3.0684 2.4874-5.5558 5.5558-5.5558 3.0684,0 5.5558,2.4874 5.5558,5.5558z" transform="matrix(.31749 0 0 .31749 332.61368 497.02021)"/>
<path d="m391.8926,529.9242-5.8987,0 2.9494-5.1084z" transform="matrix(.68027 0 0 -.68027 125.72753 888.78354)"/>
</g>
</svg>
