<svg xmlns="http://www.w3.org/2000/svg" viewBox="0 0 512 512"><path d="m0,0h512v512h-512z"/>
<g transform="matrix(18.68858 0 0 18.68858 -4020.51758 -957.26049)">
<path fill="#fff" d="m223.8121,52.3629c-2.2366,4.7695 2.6431,10.2597 4.8737,4.884-.9212,9.505 10.605,9.3312 6.3798-.6145 0-.039 .0006-.0777 0-.1165 8.2154,7.9803 9.0407,19.2258 .7597,21.0864-.3869-.0299-15.2757,.0645-15.5982-.0144-3.4785-2.6222-5.4182-7.4579-2.7543-14.2201-.3019,5.2681 3.9168,9.9578 5.7939,6.7846 3.3273-5.6248-9.2935-12.0813 .5454-17.7896z"/>
<path stroke="#000" fill-rule="evenodd" d="m225.6387,63.7578c6.1299,9.4998-1.925,12.9302-1.25,8.7812-3.3806,1.4536-2.7074,4.2164-1.5625,4.7188 4.1026,1.7999 10.6353-4.9646 5.6267-8.7511 4.8343-.8522 10.2203,5.3737 3.3086,9.5238 7.176-1.5409 8.7687-8.9264 6.1898-13.554-.3173,2.1625-1.3596,4.3605-2.8125,5.6562-2.0606-3.1639-4.9398-4.9368-9.5-6.375z"/>
</g>
</svg>
