<svg xmlns="http://www.w3.org/2000/svg" viewBox="0 0 512 512"><path d="m0,0h512v512h-512z"/>
<g fill="#fff" transform="matrix(18.68858 0 0 18.68858 -1468.26532 -11020.76444)">
<path d="m79.3438,590.5312v5.604l3.125.8335 3.5312,3.5312-3.0312,1.625 6.4375,1.7812 5.875,5.875 5.9062,2.7188-2.7188-5.9062-2.4688-2.4688-1.7812-6.4375-1.625,3.0312-3.2188-3.2188-1.7812-6.4375-1.625,3.0312-3.5625-3.5625h-3.0625z"/>
<path d="m104.8369,616.139-12.9931-5.8778 5.1657-1.9495 1.9495-5.1658 5.8778,12.9931z"/>
</g>
<g fill="none" stroke="#000" transform="matrix(18.68858 0 0 18.68858 -1468.26532 -11020.76444)">
<path d="m94.3233,596.4314-2.9179,5.4555"/>
<path d="m81.8695,602.1664 5.4997-2.9447"/>
<path d="m87.4277,590.3765-2.5669,4.8153"/>
<path d="m88.9687,610.8125 6.2058-2.3334m1.9597-1.7734 2.473-6.4869"/>
</g>
</svg>
