<svg xmlns="http://www.w3.org/2000/svg" viewBox="0 0 512 512" xmlns:xlink="http://www.w3.org/1999/xlink"><path d="m0,0h512v512h-512z"/><path fill="#fff" d="m616.6 1326.97c0 4.378-3.549 7.928-7.928 7.928-4.378 0-7.928-3.549-7.928-7.928 0-4.378 3.549-7.928 7.928-7.928 4.378 0 7.928 3.549 7.928 7.928" transform="matrix(15.47676-15.47751 15.49788 15.49863-29727.3-10890.24)"/><g transform="matrix(16.24876-16.24944 16.27088 16.27156-31211.82-11447.34)"><path d="m609.27 1330.01l-1.032 2.948-1.032-2.948h2.063"/><path d="m609.27 1322.89l-1.032-2.948-1.032 2.948h2.063"/><path d="m606.45 1329.7l-2.814 1.355 1.355-2.814 1.459 1.459"/><path d="m611.48 1324.66l1.355-2.814-2.814 1.355 1.459 1.459"/><path d="m604.68 1327.48l-2.948-1.032 2.948-1.032v2.063"/><path d="m611.8 1327.48l2.948-1.032-2.948-1.032v2.063"/><path d="m604.99 1324.66l-1.355-2.814 2.814 1.355-1.459 1.459"/><path d="m610.02 1329.7l2.814 1.355-1.355-2.814-1.459 1.459"/></g><g transform="matrix(18.68858 0 0 18.68858-11118.16-24503.48)"><g fill="#fff"><path d="m605.38 1321.3c-1.881 1.881-1.879 4.949.005 6.833 1.884 1.884 4.977 1.911 6.859.03 1.881-1.881 1.854-4.975-.03-6.859-1.884-1.884-4.952-1.886-6.833 0z"/><path d="m598.41 1317.72c-2.033 4.818-1.062 10.593 2.865 14.521 3.928 3.928 9.732 4.928 14.55 2.895-4.87 3.488-11.702 3.02-16.08-1.363-4.38-4.38-4.821-11.182-1.333-16.05"/><path d="m619.08 1331.79c2.033-4.818 1.062-10.593-2.865-14.521-3.928-3.928-9.732-4.928-14.55-2.895 4.87-3.488 11.702-3.02 16.08 1.363 4.38 4.38 4.821 11.182 1.333 16.05"/><g stroke="#000" stroke-width="1.051"><path d="m619.99 1333.98c0 1.071-.868 1.94-1.94 1.94-1.071 0-1.94-.868-1.94-1.94 0-1.071.868-1.94 1.94-1.94 1.071 0 1.94.868 1.94 1.94z" transform="matrix(.95146 0 0 .95146 29.72 64.59)" id="0"/><use transform="translate(-17.701-17.739)" xlink:href="#0"/></g></g><path d="m612.24 1325.52c0 2.074-1.681 3.755-3.755 3.755-2.074 0-3.755-1.681-3.755-3.755 0-2.074 1.681-3.755 3.755-3.755 2.074 0 3.755 1.681 3.755 3.755" transform="matrix(.62221-.62223.62305.62308-595.62 877.46)"/></g></svg>
