<svg xmlns="http://www.w3.org/2000/svg" viewBox="0 0 512 512"><path d="m0,0h512v512h-512z"/>
<g stroke="#000" transform="matrix(18.68858 0 0 18.68858 1980.7116 -15525.646)">
<path fill="#fff" stroke-width=".931" d="m323.8125,845.6747c0,6.7655-5.4845,12.25-12.25,12.25-6.7655,0-12.25-5.4845-12.25-12.25 0-6.7655 5.4845-12.25 12.25-12.25 6.7655,0 12.25,5.4845 12.25,12.25z" transform="matrix(1.07398 0 0 1.07398 -426.92974 -63.84392)"/>
<path fill="none" stroke-width="2.713" d="m-108.8718,848.4223c-7.2844-3.7285-9.7923-13.0079-6.1077-20.1499 4.2169-8.1738 14.6513-10.9806 22.6723-6.8125 9.1308,4.7448 12.2587,16.4237 7.5678,25.3908-5.3136,10.1575-18.3295,13.6293-28.3121,8.375-11.2562-5.9246-15.0956-20.3731-9.2358-31.4429 6.5793-12.4291 22.5589-16.6604 34.7898-10.1517 13.6784,7.279 18.3266,24.8912 11.1242,38.3593-8.0251,15.0063-27.3744,20.0972-42.1579,12.1549-13.0318-7.0012-19.7261-22.2768-16.7305-36.6582" transform="matrix(.36881 0 0 .36844 -55.12234 535.90662)"/>
</g>
<g transform="matrix(18.68858 0 0 18.68858 1980.7116 -15525.646)">
<path stroke="#fff" fill-rule="evenodd" d="m-83.253,857.1173c0-6.1281 .1096-9.7139-5.5208-10.5992 .9155-1.1461 1.4569-2.7503 1.4569-4.5152 0-3.4851-2.2157-6.3136-4.9457-6.3136-2.73,0-4.9457,2.8285-4.9457,6.3136 0,1.8095 .6154,3.4402 1.5719,4.5917-5.1823,.9744-5.5591,4.4008-5.5591,10.5227"/>
</g>
<g fill="#fff" stroke="#000" stroke-width=".297" transform="matrix(18.68858 0 0 18.68858 1980.7116 -15525.646)">
<path d="m308.625,843.8622c0,.1208-.4617,.2188-1.0312,.2188-.5695,0-1.0312-.0979-1.0312-.2188 0-.1208 .4617-.2188 1.0312-.2188 .5695,0 1.0312,.0979 1.0312,.2188z" transform="matrix(1.75639 0 0 6.44969 -634.52432 -4600.5907)"/>
<path d="m308.625,843.8622c0,.1208-.4617,.2188-1.0312,.2188-.5695,0-1.0312-.0979-1.0312-.2188 0-.1208 .4617-.2188 1.0312-.2188 .5695,0 1.0312,.0979 1.0312,.2188z" transform="matrix(1.75639 0 0 6.44969 -630.53055 -4600.5907)"/>
</g>
</svg>
