<svg xmlns="http://www.w3.org/2000/svg" viewBox="0 0 512 512"><path d="m0,0h512v512h-512z"/><g fill="#fff"><g transform="matrix(18.68858 0 0 18.68858-8403.34-45609.51)"><path d="m452.02 2446.15l2.134-1.487-3.268-3.085 5.984 2.632-1.423 1.488 18.267 14.714-2.745 1.913 5.073 4.741-8.567-4.159 1.83-1.913z"/><path d="m471.63 2442.87l1.487 2.134 3.085-3.268-2.632 5.984-1.488-1.423-14.714 18.267-1.913-2.745-4.741 5.073 4.159-8.566 1.913 1.829z"/></g><path stroke="#000" d="m431.5 2475.85c-4.03 0-7.309 2.688-7.309 5.971 0 1.53.72 2.927 1.887 3.98l.137 3.569c0 0 2.128 1.372 5.353 1.372 3.225 0 5.216-1.372 5.216-1.372l.103-3.534c1.195-1.059 1.922-2.464 1.922-4.01 0-3.283-3.277-5.971-7.309-5.971z" transform="matrix(18.68858 0 0 18.68858-7793.46-46183.6)"/></g><g transform="matrix(18.68858 0 0 18.68858-7793.06-46183.6)"><path d="m436.84 2482.11c0 1.165-.945 2.11-2.11 2.11-1.165 0-2.11-.945-2.11-2.11 0 0 4.151-2.231 4.219 0"/><path d="m426.12 2482.11c0 1.165.944 2.109 2.11 2.109 1.165 0 2.11-.944 2.11-2.109 0 0-4.151-2.231-4.219 0"/></g><path d="m430.41 2486.13h2.176l-1.088-2.43z" transform="matrix(18.68858 0 0 18.68858-7793.46-46183.6)"/><g fill="none" stroke="#000" transform="matrix(18.68858 0 0 18.68858-8403.34-45609.51)"><path d="m461.43 2456.85v2.669"/><path d="m467.16 2456.85v2.669"/><path d="m464.27 2457.26v2.427"/></g></svg>