<svg xmlns="http://www.w3.org/2000/svg" viewBox="0 0 512 512"><path d="m0,0h512v512h-512z"/>
<g transform="matrix(19.12326 0 0 19.12326 605.22725 723.1477)">
<path fill="#fff" fill-rule="evenodd" d="m-29.0361-18.3804c-4.1636-9.2305 2.5464-20.9918 8.9375-16l2.0625-2.75c9.9255,.6404 16.8676,13.2856 9.5625,15.875l1.125,2.875c-7.342,9.4495-20.2103,6.9724-18.625,.5l-3.0625-.5z"/>
<g stroke="#000">
<g fill="none" stroke-width=".977">
<path d="m-8.5918-21.218c.2447,.8809 .7464,1.7582 1.3036,2.7309-5.4342,6.5173-14.7804,8.9243-18.4303,2.9508-.9879-1.6169-.2966-3.3624 1.5328-3.8871 1.325-.38 3.3367,.0042 3.9022,2.3909"/>
<path d="m-7.8265-18.2575c-3.9237,.5303-10.3036-1.2759-10.4356-6.6332"/>
<path d="m-20.826-25.2794c2.3498,3.5595 1.1503,12.0682-2.8685,8.5142"/>
<path d="m-25.9913-17.9664c-.0959-.0248-.1933-.0469-.2921-.0667-.8134-.1628-1.7252-.1665-2.7247-.1698-2.927-7.9648-.3385-17.2624 6.6597-17.4365 1.8942-.0472 3.0602,1.4243 2.5999,3.271-.3334,1.3375-1.672,2.8876-4.0217,2.184"/>
<path d="m-28.9378-18.7839c1.5026-3.6632 6.2567-8.2852 10.9623-5.7209"/>
<path d="m-16.3569-26.5308c-4.2575,.2553-11.0266-5.0379-5.9392-6.7412"/>
<path d="m-19.8917-34.7017c.6406-.6524 1.1495-1.5255 1.7132-2.4944 8.3612,1.4475 15.1189,8.338 11.7706,14.4857-.9063,1.664-2.7636,1.9381-4.1327,.6161-.9916-.9575-1.6647-2.8918 .1195-4.5749"/>
<path d="m-17.7105-36.8447c2.4211,3.1329 4.0469,9.5611-.5267,12.3541"/>
<path d="m-17.2919-22.0759c1.9077-3.8148 9.8762-7.0303 8.8077-1.7729"/>
</g>
<g fill="#fff" stroke-width="1.215">
<path d="m-26.0625-27.7004c0,1.5533-1.2592,2.8125-2.8125,2.8125-1.5533,0-2.8125-1.2592-2.8125-2.8125 0-1.5533 1.2592-2.8125 2.8125-2.8125 1.5533,0 2.8125,1.2592 2.8125,2.8125z" transform="matrix(.96593 -.25882 .16731 .62442 17.08195 -3.7975)"/>
<path d="m-26.0625-27.7004c0,1.5533-1.2592,2.8125-2.8125,2.8125-1.5533,0-2.8125-1.2592-2.8125-2.8125 0-1.5533 1.2592-2.8125 2.8125-2.8125 1.5533,0 2.8125,1.2592 2.8125,2.8125z" transform="matrix(-.25882 .96593 -.62442 -.16731 -54.00242 -5.39029)"/>
<path d="m-26.0625-27.7004c0,1.5533-1.2592,2.8125-2.8125,2.8125-1.5533,0-2.8125-1.2592-2.8125-2.8125 0-1.5533 1.2592-2.8125 2.8125-2.8125 1.5533,0 2.8125,1.2592 2.8125,2.8125z" transform="matrix(-.70711 -.70711 .45711 -.45711 -17.10067 -65.52721)"/>
</g>
</g>
</g>
</svg>
