<svg xmlns="http://www.w3.org/2000/svg" viewBox="0 0 512 512"><path d="m0,0h512v512h-512z"/>
<g transform="matrix(18.30285 4.90423 -4.90423 18.30285 1433.40719 264.89992)">
<path fill="#fff" fill-rule="evenodd" d="m-73.407,14.7827 2.1349,.4066c-.1696,8.5192 4.9368,16.2432 17.1805,11.9958l-1.3216-2.3382c9.9601-4.7765 9.2766-16.3887 1.8299-20.6369l-1.2199,2.0332c-13.685-6.5039-18.3507,3.0601-18.6037,8.5394z"/>
</g>
<g stroke="#000" transform="matrix(18.30285 4.90423 -4.90423 18.30285 1433.40719 264.89992)">
<g stroke-width=".986">
<path fill="none" d="m-71.1449,15.249c-1.4879,10.2583 7.9248,16.9477 16.8761,11.7797l-3.4563-5.9865c3.674-2.1212 .3982-7.3982-3.104-5.3763"/>
<path fill-rule="evenodd" d="m-67.981,14.791c-1.3495,6.9878 3.6997,13.3187 9.3227,10.0723l-1.5249-2.6413c-3.9085,2.2566-6.9865,.9009-7.763-2.7313"/>
</g>
<path fill="#fff" stroke-width=".8" d="m-64.0938,10.8153c0,.8888-.7205,1.6094-1.6094,1.6094-.8888,0-1.6094-.7205-1.6094-1.6094 0-.8888 .7205-1.6094 1.6094-1.6094 .8888,0 1.6094,.7205 1.6094,1.6094z" transform="matrix(1.23301 0 0 1.23301 18.74697 9.16744)"/>
</g>
<g stroke="#000" transform="matrix(-4.90423 -18.30285 18.30285 -4.90423 -332.95109 -780.87037)">
<g stroke-width=".986">
<path fill="none" d="m-71.1449,15.249c-1.4879,10.2583 7.9248,16.9477 16.8761,11.7797l-3.4563-5.9865c3.674-2.1212 .3982-7.3982-3.104-5.3763"/>
<path fill-rule="evenodd" d="m-67.981,14.791c-1.3495,6.9878 3.6997,13.3187 9.3227,10.0723l-1.5249-2.6413c-3.9085,2.2566-6.9865,.9009-7.763-2.7313"/>
</g>
<path fill="#fff" stroke-width=".8" d="m-64.0938,10.8153c0,.8888-.7205,1.6094-1.6094,1.6094-.8888,0-1.6094-.7205-1.6094-1.6094 0-.8888 .7205-1.6094 1.6094-1.6094 .8888,0 1.6094,.7205 1.6094,1.6094z" transform="matrix(1.23301 0 0 1.23301 18.74697 9.16744)"/>
</g>
<g stroke="#000" transform="matrix(-13.39861 13.39861 -13.39861 -13.39861 -353.62691 1266.96698)">
<g stroke-width=".986">
<path fill="none" d="m-71.1449,15.249c-1.4879,10.2583 7.9248,16.9477 16.8761,11.7797l-3.4563-5.9865c3.674-2.1212 .3982-7.3982-3.104-5.3763"/>
<path fill-rule="evenodd" d="m-67.981,14.791c-1.3495,6.9878 3.6997,13.3187 9.3227,10.0723l-1.5249-2.6413c-3.9085,2.2566-6.9865,.9009-7.763-2.7313"/>
</g>
<path fill="#fff" stroke-width=".8" d="m-64.0938,10.8153c0,.8888-.7205,1.6094-1.6094,1.6094-.8888,0-1.6094-.7205-1.6094-1.6094 0-.8888 .7205-1.6094 1.6094-1.6094 .8888,0 1.6094,.7205 1.6094,1.6094z" transform="matrix(1.23301 0 0 1.23301 18.74697 9.16744)"/>
</g>
</svg>
