<svg xmlns="http://www.w3.org/2000/svg" viewBox="0 0 512 512"><path d="m0,0h512v512h-512z"/><path fill="#fff" d="m512.31 272.33c0 1.398-2.267 2.531-5.063 2.531s-5.063-1.133-5.063-2.531 2.267-2.531 5.063-2.531 5.063 1.133 5.063 2.531" transform="matrix(18.23389-.03158 0-23.4523-9094.23 6781.76)"/><g fill-rule="evenodd" transform="matrix(18.68858 0 0 18.68858 3885.65-6702.29)"><path fill="#fff" stroke="#fff" d="m-195.19 378.95v-15.967c8.728 14.396 7.396-.18 12.859 8.239v3.138c-5.429-8.234-5.894 4.749-12.8-7.719"/><path d="m-181.63 377.13c-.319-2.378-2.144-6.675-4.287-7.646 1.917-.317 3.641 1.211 5.078 2.406l-.791 5.24"/></g><g fill="none" stroke="#fff" transform="matrix(18.68858 0 0 18.68858 3885.65-6702.29)"><path d="m-206.87 363.99h11.756"/><path d="m-206.87 366.16h11.756"/><path d="m-199.7 380.6h18.481"/><path d="m-199.7 378.41h18.481"/></g></svg>