<svg xmlns="http://www.w3.org/2000/svg" viewBox="0 0 512 512"><path d="m0,0h512v512h-512z"/>
<g transform="matrix(18.68858 0 0 18.68858 -11128.78906 -46953.15038)">
<path fill="#fff" d="m620.817,2518.9287c-2.6884,7.7707-10.0767,17.4495-18.5873,19.6566-5.4434-6.2195-4.2027-17.442-.8578-25.0483 7.4713-.1869 13.7329,1.682 19.4455,5.3917z"/>
<path d="m615.4547,2528.8131c-.3607-1.682-3.7413-5.0123-6.8327-6.8345 3.8478,.7289 7.7079,2.8202 8.7109,4.8572"/>
<path d="m612.1762,2533.7824c-.7718-3.1528-3.4998-6.2495-7.3085-9.4864 3.9025,1.4391 8.0753,4.5264 9.7511,7.0755"/>
<path d="m596.9005,2521.0965c3.2275-.1868 9.3901,2.0278 13.3984,4.1003-2.6188-2.7565-9.0382-6.1523-13.0897-5.6869"/>
<path d="m597.5705,2525.3706c3.5796,.6541 7.4756,2.0446 12.3068,6.7541-2.3484-4.0554-6.4291-8.2024-12.2812-8.722"/>
<path d="m601.7525,2515.832c5.7058-.2617 11.3496,3.4125 13.5784,6.4587-3.6123-1.2334-12.1552-2.7397-17.0219-2.1865l.6765-1.8502c3.4593-.2056 7.2155,.1869 10.6747,1.2521-1.8278-1.5511-4.5862-2.7434-7.9071-3.6779z"/>
<path d="m619.6688,2524.4792c-1.6876-3.2238-4.2339-5.9318-9.4009-8.3576 5.2336,1.0092 9.1445,3.3416 11.2722,5.9748"/>
<path d="m597.7666,2527.4058c4.2488,.5233 8.9307,3.3359 11.2292,6.3111-2.0169-.1868-3.0784-.2055-4.4877,0 .7961,.8223 1.1699,1.6446 1.4465,2.5024-1.4745-1.2334-3.9263-2.4089-5.5526-3.1266 1.2316-.6727 3.1541-.5606 4.4847-.6727-1.6315-1.5699-4.5626-2.7024-6.8488-2.7136"/>
<path d="m606.2966,2537.7331-4.8951-2.7958 2.1675,3.5322"/>
</g>
</svg>
