<svg xmlns="http://www.w3.org/2000/svg" viewBox="0 0 512 512"><path d="m0,0h512v512h-512z"/>
<g transform="matrix(18.68858 0 0 -18.68858 -12482.80408 23653.27834)">
<g fill="#fff">
<path d="m675.3151,1248.3734 14.6135,14.6133 4.6581,1.8586-1.8584-4.6582-14.6136-14.6136-2.7997,2.7999z"/>
<path stroke="#000" d="m-404.421,1350.1h2.343v7.75h-2.343z" transform="matrix(.70711 -.70711 .70711 .70711 0 0)"/>
</g>
<path fill="none" stroke="#000" d="m675.509,1245.7902 15.8275,15.8276"/>
<g fill="#fff">
<path stroke="#000" d="m670.5407,1248.8788 8.0568-8.0569 2.2873,2.2874c-3.3739,1.9479-6.1309,4.721-8.0568,8.0568l-2.2873-2.2873z"/>
<path d="m-463.056,1384.13h13.392v2.87h-13.392z" transform="matrix(.7336 -.67958 .7336 .67958 0 0)"/>
<path d="m682.6379,1246.0084 11.9311-7.1487-9.8241,9.1006-2.107-1.9519z"/>
<path d="m680.9377,1257.4457-11.9311,7.1487 9.8241-9.1005 2.107,1.9518z"/>
</g>
</g>
</svg>
