<svg xmlns="http://www.w3.org/2000/svg" viewBox="0 0 512 512"><path d="m0,0h512v512h-512z"/>
<path fill="#fff" d="m179.125,20.625c-28.0519,.119-54.046,5.813-66.7188,9.7812 0,0 114.967,19.5099 124.5312,98.875-87.364-125.9625-182.6562,26.375-182.6562,26.375 19.8667-5.2122 76.7577-20.6825 114.75-14.1562 25.9905,4.4647 51.329,28.0293 50.2352,27.7331-61.9435,15.2398-160.3502,290.9212-143.6414,313.3078 14.9019,17.1203 29.8169,11.2778 44.7188,2.5938 7.3767-58.4243 64.9384-314.7644 135.375-294.0721 .01,.003 .0217-.003 .0313,0 5.9295,2.0306 11.5389,5.5911 11.8438,11.0312 .5808,10.3625-6.1101,27.2987-4.5312,39.0625 3.6635,27.2962 9.0086,36.7908 16.7812,46.3125 18.5637-10.434 36.3258-48.0559 40-67.5625 16.6342,7.284 43.3733,24.1551 65.1875,86.8125 11.4026-58.7147-5.0433-105.0275-59.0313-125.5938 23.3789-10.1051 125.1424,41.0288 137.5625,69.5312 12.0856-51.3929-73.3954-114.2788-144.5625-110.9375 13.6438-3.5592 28.6375,.6004 42.9062-9.9062 19.1454-14.0975 41.4734-26.2401 62.2812-39.2812-69.9739-30.4367-134.5468-15.4085-139.0938,16.0938-3.5727-69.9164-57.8284-86.2042-105.9688-86z"/>
</svg>
