<svg xmlns="http://www.w3.org/2000/svg" viewBox="0 0 512 512"><path d="m0,0h512v512h-512z"/><g transform="matrix(.73397 0 0 .73397 7.725 52.52)" fill="#fff"><path d="m423.9 108.29c0 0 54.16-60.3 79.27-43.598 36.508 24.277.242 92.08-13.875 130.79l21.799 43.598c14.969-48.776 59.863-160.48 5.05-196.19-28.495-18.569-60.3 9.64-92.25 43.598z"/><path d="m251.06 108.29c0 0-54.16-60.3-79.27-43.598-36.508 24.277-.242 92.08 13.875 130.79l-21.799 43.598c-14.969-48.776-59.863-160.48-5.05-196.19 28.495-18.569 60.3 9.64 92.25 43.598z"/><path d="m251.06 108.29c-65.4 65.4-109 174.39-87.2 239.79 21.799 65.4 87.2 109 87.2 152.59 0 21.799-21.799 21.799-21.799 43.598 0 21.799 43.598 65.4 109 65.4 65.4 0 109-43.598 109-65.4 0-21.799-21.799-21.799-21.799-43.598 0-43.598 65.4-87.2 87.2-152.59 21.799-65.4-21.799-174.39-87.2-239.79 21.799-43.598 0-43.598 0-65.4 0 0 35.06-7.978 43.598-21.799 7.64-12.362 8.835-32.06 0-43.598-27.456-35.857-109-35.33-130.79-35.33-21.799 0-103.34-.525-130.79 35.33-8.835 11.539-7.64 31.24 0 43.598 8.542 13.821 43.598 21.799 43.598 21.799 0 14.945-21.799 21.799 0 65.4z" stroke="#000" stroke-width="24.524"/></g></svg>