<svg xmlns="http://www.w3.org/2000/svg" viewBox="0 0 512 512"><path d="m0,0h512v512h-512z"/><g transform="matrix(.73397 0 0 .73397 7.725 52.52)" fill-rule="evenodd" stroke="#000" stroke-linejoin="round" stroke-width="24.524"><g fill="#fff"><path d="m417.46 310.28l-261.84 87.22-125.14-41.686 261.84-87.22z"/><path d="m155.62 397.51v104.99l-125.14-41.686v-104.99z"/></g><path d="m417.46 310.28l-261.84 87.22v104.99l261.84-87.22z"/><g fill="#fff"><path d="m58.888 183.17l261.84 87.22 125.14-41.686-261.84-87.22z" stroke-linecap="round"/><path d="m275.63 357.14l261.84 87.22 125.14-41.686-261.84-87.22z"/></g><path d="m537.47 444.37v104.99l125.14-41.686v-104.99z"/><g fill="#fff"><path d="m320.73 270.4v104.99l125.14-41.686v-104.99z" stroke-linecap="round"/><path d="m275.63 357.14l261.84 87.22v104.99l-261.84-87.22z"/><g stroke-linecap="round"><path d="m58.888 183.17l261.84 87.22v104.99l-261.84-87.22z"/><path d="m637.01 247.43l-261.84 87.22-125.14-41.686 261.84-87.22z"/><path d="m375.16 334.66v104.99l-125.14-41.686v-104.99z"/></g></g><g stroke-linecap="round"><path d="m637.01 247.43l-261.84 87.22v104.99l261.84-87.22z"/><path d="m183.13 73.37l261.84 87.22 125.14-41.686-261.84-87.22z" fill="#fff"/><path d="m444.97 160.59v104.99l125.14-41.686v-104.99z"/><path d="m183.13 73.37l261.84 87.22v104.99l-261.84-87.22z" fill="#fff"/></g></g></svg>