<svg xmlns="http://www.w3.org/2000/svg" viewBox="0 0 512 512"><path d="m0,0h512v512h-512z"/><g stroke-width="18"><g fill="#fff" stroke-linejoin="round"><path d="m177.95 177.57c-11.595-35.406-84.52-39.603-154.17-32.982 39.893-21.529 69.21-27.352 105.08-20.71 0.654-36.625-32.933-64.967-76.7-95.11 48.12 6.376 106.13 30.742 124.56 64.31 15.187-50.55 20.34-56.34 51.856-67.37-23.67 46.27-38.95 62.66 0 116.59z" stroke="#fff"/><path d="m158.01 211.32c-.486-40.02 50.05-84.943 89.74-79.77 140.5 18.308 244.82 328.43 234.71 354.37-14.21 36.448-322.73-132.92-324.45-274.6z" stroke="#000"/></g><path d="m327.86 171.77c-26.501 40.794-44.18 46.662-79.34 61.796" fill="none" stroke="#000"/></g><path d="m369.71 218.23c-24.798 27.984-11.922 22.815-55.52 44.488" fill="none" stroke="#000" stroke-width="16"/></svg>
