<svg xmlns="http://www.w3.org/2000/svg" viewBox="0 0 512 512"><path d="m0,0h512v512h-512z"/><g stroke="#000" stroke-width="18"><g stroke-linecap="round"><path d="m99.31 250.09c.817-66.788 255.85-233.03 300.78-223.12 23.621 5.211 11.628 52.28-16.1 115.84-22.816 52.31-56.29 115.79-89.33 176.32-38.446 70.42-98.19 97.31-121.12 107.92-36.516 16.9-64.25-14.381-50.13-69.08 8.197-43.723-11.1-74.3-24.11-107.88z" fill="#fff"/><g fill="none"><path d="m344.6 128.25c22.01-54.07-35.743-53.47-192.04 154.35 27.502 21.635 43.23 43.21 15.14 55.09" stroke-linejoin="round"/><path d="m235.54 179.83c50.946-44.16 56.907-27.13 43.623 32.2"/></g></g><path d="m171.49 380.52c15.542 24.483 25.1 64.59 3.116 86.21 25.19 30.23 43.747 15.716 52.18.504 16.627-29.979-18.873-96.1-55.3-86.71z" fill="#fff" stroke-linejoin="round"/></g></svg>