<svg xmlns="http://www.w3.org/2000/svg" viewBox="0 0 512 512"><path d="m0,0h512v512h-512z"/>
<g fill="#fff">
<path d="m79.75,79.75h58.75v58.75h-58.75z"/>
<path d="m138.5,21h58.75v58.75h-58.75z"/>
<path d="m256,21h58.75v58.75h-58.75z"/>
<path d="m256,256h58.75v58.75h-58.75z"/>
<path d="m373.5,21h58.75v58.75h-58.75z"/>
<path d="m21,21h58.75v58.75h-58.75z"/>
<path d="m197.25,79.75h58.75v58.75h-58.75z"/>
<path d="m79.75,432.25h58.75v58.75h-58.75z"/>
<path d="m256,138.5h58.75v58.75h-58.75z"/>
<path d="m314.75,314.75h58.75v58.75h-58.75z"/>
<path d="m432.25,314.75h58.75v58.75h-58.75z"/>
<path d="m432.25,432.25h58.75v58.75h-58.75z"/>
<path d="m314.75,79.75h58.75v58.75h-58.75z"/>
<path d="m21,373.5h58.75v58.75h-58.75z"/>
<path d="m373.5,373.5h58.75v58.75h-58.75z"/>
<path d="m256,373.5h58.75v58.75h-58.75z"/>
<path d="m432.25,79.75h58.75v58.75h-58.75z"/>
<path d="m314.75,432.25h58.75v58.75h-58.75z"/>
<path d="m197.25,432.25h58.75v58.75h-58.75z"/>
<path d="m197.25,314.75h58.75v58.75h-58.75z"/>
<path d="m79.75,314.75h58.75v58.75h-58.75z"/>
<path d="m373.5,256h58.75v58.75h-58.75z"/>
<path d="m373.5,138.5h58.75v58.75h-58.75z"/>
<path d="m21,138.5h58.75v58.75h-58.75z"/>
<path d="m138.5,256h58.75v58.75h-58.75z"/>
<path d="m79.75,197.25h58.75v58.75h-58.75z"/>
<path d="m138.5,138.5h58.75v58.75h-58.75z"/>
<path d="m432.25,197.25h58.75v58.75h-58.75z"/>
<path d="m21,256h58.75v58.75h-58.75z"/>
<path d="m138.5,373.5h58.75v58.75h-58.75z"/>
<path d="m197.25,197.25h58.75v58.75h-58.75z"/>
<path d="m314.75,197.25h58.75v58.75h-58.75z"/>
</g>
</svg>
