<svg xmlns="http://www.w3.org/2000/svg" viewBox="0 0 512 512"><path d="m0,0h512v512h-512z"/><g fill="#fff"><path d="m116.82 286.31l313.17-251.87 56.11 20.708-16.894 18.02-14.492.943-2.505 17.19-15.827 3.818-3.864 17.18-17.254 6.651-3.511 15.496-17.535 7.04-4.215 16.15-17.512 7.07-6.253 18.281-21.725 8.516-6.487 21.573-22.12 6.04-3.02 20.782-26.24 7.529-1.597 22.16-24.18 5.333-4.072 24.803-26.526 6.474-5.738 27.938-37.467 39.961z"/><path d="m114.01 265.94l-95.5 69.53c16.01 59.4 54.04 105.17 97.63 147.5l83.56-92-61.09-66.03 8.406-25.281zm-20.13 55.751l63.775 69.36-37.83 40.51c-4.89-40.08-22.455-70.793-57.785-88.37z" stroke="#000" stroke-width="18"/></g></svg>