<svg xmlns="http://www.w3.org/2000/svg" viewBox="0 0 512 512"><path d="m0,0h512v512h-512z"/><g fill="#fff"><path d="m214.58 491.23c22.18-105.77-61.37-247.47-147.57-250.8 72.962 73.26 120.77 188.62 80.07 250.8z"/><path d="m372.15 491.62h85.14c-25.25-71.46-11.548-162.37 12.272-266.54-68.23 61.5-93.94 160.53-97.41 266.54"/><g stroke="#000" stroke-width="18"><path d="m412.63 501.23c-79.26-159.69-186.77-358.31-369.93-437.68 124.76 140.88 243.7 331.16 254.87 437.68z"/><path d="m199.46 501.5c21.523-133 116.68-377.99 300.37-503.25-152.59 215.83-169.83 368.67-205.26 503.25z"/></g><path d="m142.56 490.98c-13.1-72.02-31.456-116.3-108.45-162.59 53.02 80.935 61.714 124.96 40.948 162.59z"/></g></svg>