<svg xmlns="http://www.w3.org/2000/svg" viewBox="0 0 512 512"><path d="m0,0h512v512h-512z"/>
<g stroke="#000" stroke-width="16">
<path fill="#fff" d="m253,268.5c108.7825-20.9174 77.6228,91.033 70,171.5-35.6449,22.2684-72.5493,19.3466-109.5,15.5-13.0604-62.0411-101.2102-159.9434 39.5-187z"/>
<path fill="none" d="m179.7721,365.0251c44.7757,14.6251 108.6364,16.7571 154.7383-13.7071"/>
</g>
<path stroke="#fff" stroke-linejoin="round" stroke-linecap="round" stroke-width="12.817" d="m458.1966,266.8619c0,65.0002-75.2666,145.8364-97.7769,125.9447-20.4522-18.0731 47.6984-134.9045-54.0979-122.0335-101.7963,12.871-13.3046,103.5553-31.1136,122.5072-29.6281,31.5295-113.642-56.7002-113.642-125.9296 0-83.0294 70.5711-137.6266 151.3271-138.8488 87.0413-1.3174 145.3032,55.3305 145.3032,138.3599z" transform="matrix(1.40063 0 0 1.56888 -176.82168 -155.19164)"/>
<g fill="#fff">
<path d="m226.2742,207.1052a49.857,52.1581 0 1,1 -99.7141,0 49.857,52.1581 0 1,1 99.7141,0z" transform="matrix(1.0129 0 0 .96821 -1.63218 8.24203)"/>
<path d="m226.2742,207.1052a49.857,52.1581 0 1,1 -99.7141,0 49.857,52.1581 0 1,1 99.7141,0z" transform="matrix(.81232 0 0 .77649 171.69231 53.18595)"/>
</g>
<g fill="none" stroke="#000" stroke-linecap="round" stroke-width="16">
<path d="m209.5,340.5c.5488,21.0138 4.1804,40.7945 8,60.5"/>
<path d="m239.5,344c1.0544,18.9089 4.0105,37.5461 7.375,56.125"/>
<path d="m268,342.5c6.1377,17.665 4.6027,37.9733 6.875,57.125"/>
<path d="m302.5,339c3.12,16.2733 2.1773,34.578 0,53.5"/>
</g>
<path d="m180,209.5a7.5,7 0 1,1 -15,0 7.5,7 0 1,1 15,0z" transform="translate(4)"/>
<path d="m180,209.5a7.5,7 0 1,1 -15,0 7.5,7 0 1,1 15,0z" transform="translate(142 6.5)"/>
</svg>
