<svg xmlns="http://www.w3.org/2000/svg" xmlns:xlink="http://www.w3.org/1999/xlink" viewBox="0 0 512 512"><path d="m0,0h512v512h-512z"/><g fill="#fff" stroke="#000" stroke-width="16"><path d="m80 167c18.808-33.732 37.36-71.03 80-75 37.457-3.492 63.57 11.05 80 30 42.26-17.823 83.32-68.46 128-69.33 45.682 26.998 57.42 83.69 80 114.33" stroke-linejoin="round"/><path d="m400 347h64v45h-64z"/><path d="m48 212l53.57 202.57h304l42.43-202.57z"/><path d="m32 152v60h432v-60z" stroke-linejoin="round"/></g><path d="m128 414.5a48 52.5 0 1 1 -96 0 48 52.5 0 1 1 96 0z" transform="matrix(1.15006 0 0 1.05148 84.39-2.49)" fill="#fff" stroke="#000" stroke-linejoin="round" stroke-linecap="round" color="#000" stroke-width="16" id="0"/><use transform="translate(159.01.892)" xlink:href="#0"/></svg>
