<svg xmlns="http://www.w3.org/2000/svg" viewBox="0 0 512 512"><path d="m0,0h512v512h-512z"/><g stroke="#000"><path d="m10.812 446.54l356.59-340.84h133.79l-286.69 340.84z" fill="#fff" stroke-width="18.14"/><path d="m170.91 411.34l148.42-155.46" fill="none" stroke-width="18"/><path d="m40.1 358.51l316.95-293.06h133.79l-251.65 293.06h-84.24l-1.986-27.811-31.784 27.811z" fill="#fff" stroke-width="18.14"/><g fill="none" stroke-width="18"><path d="m181.49 357.71l117.3-127.89c.259-24.899 15.799-25.783 28.521-31.1l64.18-69.976"/><path d="m167.15 291.76c14.217-7.68 30.06-14.547 29.832-29.451l196.06-193.55"/><path d="m68.82 444.72c27.12-30.465 26.395-46.28 65.976-57.13"/><path d="m130.2 412.79c-3.299 6.294-6.934 12.363-18.02 13.465" stroke-linecap="round"/></g></g></svg>