<svg xmlns="http://www.w3.org/2000/svg" viewBox="0 0 512 512"><path d="m0,0h512v512h-512z"/><g transform="matrix(.73397 0 0 .73397 7.725 52.52)"><g stroke-linejoin="bevel"><g fill="#fff" stroke="#000" stroke-width="24.524"><path d="m105.92 159.99l46.01-81.19 85.93 23.682 111.64-14.209c227.83 87.94 87.5 215.98-40.597 266.59l-142.09-13.532-79.84-67.66z"/><path d="m230.42 367.71l51.42-165.77 138.03-140.06 171.19 85.25 42.627 146.15 25.712 142.09-249 14.209z"/><path d="m15.255 364.33l27.06-127.21 108.26-35.18 14.886 112.32-27.06 63.6z"/><path d="m517.31 427.93l77.14-92.02 78.49 100.14-51.42 29.771-101.58-21.652z"/><path d="m161.41 308.85l62.59-20.637 47.03 98.45-32.478 31.801-89.31-2.706-40.597-55.48z"/><path d="m295.74 432.99l-.056 92.08 146.63 18.413 72.38-31.946-27.24-136.93-124.05-53.937z"/><path d="m72.35 436.23l59.06 11.558 93.86 47.985-2.706 54.13-144.8 18.945-21.652-79.84z"/></g><path d="m331.5 165.75l41.44-8.428 47.06 66.02 2.107 62.51-25.284-59.698z" transform="matrix(1.36245 0 0 1.36245-10.525-71.56)" stroke-width="18"/></g><path d="m379.44 506.17l52.54-38.48 3.383-53.45-29.771-37.21 53.45 31.12 18.269 69.02-36.538 32.478z"/><g transform="matrix(1.36245 0 0 1.36245-10.525-71.56)"><path d="m126.95 199.56l35.943 76.05-33.27 2.483z"/><path d="m209.29 151l-42.491 7.726-34.06-10.886 29.733 23.779 40.15,0.522 1.4 43.474 33.19-47.583z"/><path d="m333.73 310.37l26.321-16.885 4.47-43.703 11.422 53.635-14.899 19.865z"/></g></g></svg>
