<svg xmlns="http://www.w3.org/2000/svg" viewBox="0 0 512 512"><path d="m0,0h512v512h-512z"/><g fill="none" stroke="#fff" stroke-width="19"><path d="m29.797 376.88c143.09-10.718 290.06-17.49 448.95-1.986"/><path d="m75.38 469.26c-7.96-121.97 41.34-298.73 123.61-439.66" stroke-linecap="round"/></g><g fill="#fff"><path d="m163.52 47.51c10.377-10.316 39.01.889 37.575 15.451-3.664 37.2-29.61 107.73-52.675 105.35-10.461-1.077-21.72-2.911-30.2-9.13-14.391-10.554 21.18-87.69 45.3-111.67"/><path d="m22.18 128.46c74.929 99.03 36.408 311.73 19.253 361.07l28.28-7.781 19.844 3.906c8.128-85.86 24.446-178.75 99.38-277.78-62.24 46.5-87.47 105.92-105.84 166.28 3.512-90.08 7.352-194.69-60.909-245.69z" stroke="#fff"/><path d="m306.49 386.85c-37.28.57-100 24.895-93.37 61.58 10.04 55.48 93.94 63.734 164.88 37.743l-32.777-43.703 76.48 37.743c26.862-38.822 16.893-95.39-115.22-93.37"/><path d="m389.3 138.78c113.25 160.11 108.62 277.66 88.02 314.46-14.675-2.293-29.418-4.077-44.15-5.932 12.73-63.02 6.842-79.921-115.27-182.43 35.418 17.694 106.94 64.43 132.27 103.94 15.26-26.01-18.631-136.08-60.87-230.03z" stroke="#fff"/></g></svg>