<svg xmlns="http://www.w3.org/2000/svg" viewBox="0 0 512 512"><path d="m0,0h512v512h-512z"/><g stroke="#000"><g fill="#fff"><path d="m128 496h256l-64-304h-128z" stroke-width="18"/><path d="m192 192h-32v-112l96-48 96 48v112h-32z" stroke-width="16"/><g transform="matrix(.81038.81038-.81038.81038 281.93-234.14)" stroke-width="13.961"><path d="m240 256v-176l64 32-48 144z"/><path d="m224 288h-176l32-64 144 48z"/><path d="m256 304v176l-64-32 48-144z"/><path d="m272 272h176l-32 64-144-48z"/><path d="m272 280c0 13.255-10.745 24-24 24-13.255 0-24-10.745-24-24 0-13.255 10.745-24 24-24 13.255 0 24 10.745 24 24z" stroke-linecap="round" color="#000"/></g></g><path d="m224 480v-48h64v48z" stroke-width="16"/></g></svg>