<svg xmlns="http://www.w3.org/2000/svg" viewBox="0 0 512 512" xmlns:xlink="http://www.w3.org/1999/xlink"><path d="m0,0h512v512h-512z"/><defs><path id="0" d="m59.917 312.06l180.32-178.58c44.02-49.619 131.92 25.419 91.73 75.28l-181.17 196.23" stroke="#000" fill="#fff"/><path id="1" d="m230.36 280.58c0 36.27-25.942 65.67-57.942 65.67-32 0-57.942-29.401-57.942-65.67 0-36.27 25.942-65.67 57.942-65.67 32 0 57.942 29.401 57.942 65.67z" stroke-linejoin="round" stroke="#000" color="#000" fill="#fff" stroke-linecap="round"/></defs><g transform="translate(-31.451 71.64)"><use stroke-width="18" xlink:href="#0"/><g fill="#fff" stroke="#000" stroke-linejoin="round" stroke-linecap="round" color="#000"><path transform="matrix(1.11515 0 0 1-82.71 73.74)" d="m230.36 280.58c0 36.27-25.942 65.67-57.942 65.67-32 0-57.942-29.401-57.942-65.67 0-36.27 25.942-65.67 57.942-65.67 32 0 57.942 29.401 57.942 65.67z" stroke-width="17.05"/><path transform="matrix(1.54204 0 0 1.53922-48.37-186.86)" d="m125.14918 358.04666a24.831184 25.327808 0 1 1 -49.662371 0 24.831184 25.327808 0 1 1 49.662371 0z" stroke-width="11.684"/></g></g><g transform="matrix(1.11456 0 0 1.11456 90.95 24.322)"><path d="m59.917 312.06l180.32-178.58c21.378-24.09 53.1-18.795 75.48-1.257 23.706 18.579 36.925 50.89 16.249 76.54l-181.17 196.23" fill="#fff" stroke="#000" stroke-width="16.15"/><use transform="matrix(1.11515 0 0 1-82.71 73.74)" stroke-width="15.293" xlink:href="#1"/><g stroke="#000" stroke-linejoin="round" stroke-linecap="round" color="#000"><path transform="matrix(1.45255 0 0 1.45963-39.66-166.75)" d="m125.15 358.05c0 13.988-11.12 25.328-24.831 25.328-13.714 0-24.831-11.34-24.831-25.328 0-13.988 11.12-25.328 24.831-25.328 13.714 0 24.831 11.34 24.831 25.328z" fill="#fff" stroke-width="11.09"/><g stroke-width="18"><path d="m219.51 423.1c0 3.84-2.668 6.953-5.959 6.953-3.291 0-5.959-3.113-5.959-6.953 0-3.84 2.668-6.953 5.959-6.953 3.291 0 5.959 3.113 5.959 6.953z" transform="matrix(.89721 0 0 .89721-86.06-22.713)"/><path transform="matrix(.89721 0 0 .89721-208.75-8.149)" d="m219.50767 423.10437a5.959485 6.952732 0 1 1 -11.91897 0 5.959485 6.952732 0 1 1 11.91897 0z"/></g></g></g><g transform="matrix(.71213 0 0 .71213 257.76 194.26)"><use stroke-width="25.276" xlink:href="#0"/><use transform="matrix(1.11515 0 0 1-82.71 73.74)" stroke-width="23.936" xlink:href="#1"/><g stroke="#000" stroke-linecap="round" stroke-width="25.276"><path transform="translate(14.824 2.263)" d="m125.15 358.05c0 13.988-11.12 25.328-24.831 25.328-13.714 0-24.831-11.34-24.831-25.328 0-13.988 11.12-25.328 24.831-25.328 13.714 0 24.831 11.34 24.831 25.328z" fill="#fff" stroke-linejoin="round" color="#000"/><path d="m320.57 156.76l-91.42 95.69" fill="#800000"/></g></g><g transform="matrix(.73397 0 0 .73397 1.725 54.52)"><use stroke-width="24.524" xlink:href="#0"/><use transform="matrix(1.11515 0 0 1-82.71 73.74)" stroke-width="23.22" xlink:href="#1"/><g color="#000"><path d="m320.97 361.35c0 4.073-2.358 7.374-5.267 7.374-2.909 0-5.267-3.302-5.267-7.374 0-4.073 2.358-7.374 5.267-7.374 2.909 0 5.267 3.302 5.267 7.374z" transform="matrix(4.67896 0 0 3.84719-1368.09-1033.63)" stroke="#000" stroke-linejoin="round" stroke-linecap="round" stroke-width="5.78"/><path d="m320.97 361.35c0 4.073-2.358 7.374-5.267 7.374-2.909 0-5.267-3.302-5.267-7.374 0-4.073 2.358-7.374 5.267-7.374 2.909 0 5.267 3.302 5.267 7.374" transform="matrix(3.5547 0 0 2.90741-1013.59-692.72)" fill="#fff"/></g></g><g transform="translate(77.75-77.75)"><use stroke-width="18" xlink:href="#0"/><use transform="matrix(1.11515 0 0 1-82.71 73.74)" stroke-width="17.05" xlink:href="#1"/><g stroke="#000" stroke-linecap="round"><path transform="matrix(1.45255 0 0 1.40424-44.33-159.13)" d="m125.15 358.05c0 13.988-11.12 25.328-24.831 25.328-13.714 0-24.831-11.34-24.831-25.328 0-13.988 11.12-25.328 24.831-25.328 13.714 0 24.831 11.34 24.831 25.328z" fill="#fff" stroke-linejoin="round" color="#000" stroke-width="12.603"/><path d="m297.97 125.13l-123.66 129.12" fill="#800000" stroke-width="18"/><path d="m175.58 282.34c0 3.879-2.516 7.02-5.619 7.02-3.103 0-5.619-3.144-5.619-7.02 0-3.879 2.516-7.02 5.619-7.02 3.103 0 5.619 3.144 5.619 7.02z" transform="matrix(1.25 0 0 1-114.45 58.13)" stroke-linejoin="round" color="#000" stroke-width="16.1"/></g></g><g transform="matrix(.61968 0 0 .61968 238.52 130.18)"><use stroke-width="29.05" xlink:href="#0"/><use transform="matrix(1.11515 0 0 1-82.71 73.74)" stroke-width="27.506" xlink:href="#1"/><path d="m320.97 361.35c0 4.073-2.358 7.374-5.267 7.374-2.909 0-5.267-3.302-5.267-7.374 0-4.073 2.358-7.374 5.267-7.374 2.909 0 5.267 3.302 5.267 7.374z" transform="matrix(3.15026 0 0 2.64613-888.67-600.97)" stroke="#000" stroke-linejoin="round" stroke-linecap="round" color="#000" stroke-width="10.06"/></g><g fill="#fff" stroke="#000" stroke-linecap="round" stroke-width="18"><path d="m230.66 154.82l-11.02-41.14 22.12-24.23 26.09 29.26"/><path d="m244.41153 118.34293a24.932785 22.12346 0 1 1 -49.86557 0 24.932785 22.12346 0 1 1 49.86557 0z" transform="matrix(.66921-.74307.74307.66921-5.337 184.23)" stroke-linejoin="round" color="#000"/></g></svg>
