<svg xmlns="http://www.w3.org/2000/svg" viewBox="0 0 512 512"><path d="m0,0h512v512h-512z"/><g transform="matrix(20.0697 9.16282-11.5972 19.86615-7440.38-13415.38)"><g fill="#fff"><path d="m604.51 401.65c-.819-.854-.682-3.31.536-4.172l24.328 8.03c-2.01 1.562-1.061 3.381.108 4.02l-12.836 4.596z"/><path d="m604.72 397.16l12.724-4.618 12.12 12.779-12.724 4.618-12.12-12.779z" stroke="#000" stroke-width=".832"/></g><g fill="none" stroke="#000" stroke-width=".832"><path d="m617.31 409.66c-1.266 1.523-.975 3.663.062 4.568"/><path d="m605.98 398.65c-1.374 1.639-.626 4.824.489 5.792"/><path d="m615.72 408.55c-1.688 1.647-1.279 4.507-.196 5.287"/></g><path d="m606.94 397.69l10.245-3.638 10.192 10.659-10.27 3.727z"/></g><path d="m436.88 422.17l28.27 26.96-40.11 1.314" fill="#fff"/><path d="m471.3 441.56l-58.71 9.212 52.7 21.19"/></svg>