<svg xmlns="http://www.w3.org/2000/svg" xmlns:xlink="http://www.w3.org/1999/xlink" viewBox="0 0 512 512"><path d="m0,0h512v512h-512z"/><defs><path id="0" d="m609.31 1348.69c1.58.205 2.813 1.924 2.813 3.999 0 1.149-.394 2.175-1 2.906 3.285.618 4.501 5.384 3.534 10.04h-2.279l-.605 8.114h-5.789l-.535-8.114h-2.162c-.853-4.538-.078-9.534 3.511-10.09-.58-.728-.953-1.739-.953-2.86 0-2.213 1.409-3.999 3.139-3.999.108 0 .22-.016.326 0z" stroke="#000" fill-rule="evenodd" fill="#fff"/></defs><g fill="#fff"><path d="m105.95 336.27l13.966 6.866 54.55-110.94 9.338 27.4.028.014 7.182 20.594 6.77-13.77 64.27-130.71-13.966-6.866-54.57 111-9.324-27.428-.028-.014-7.168-20.622-6.77 13.77-64.27 130.71"/><path d="m279.47 100.11l-10.03 11.902 94.54 79.65-28.842 2.466-.02.024-21.717 2.01 11.734 9.886 111.39 93.85 10.03-11.902-94.59-79.69 28.866-2.445.02-.024 21.741-1.992-11.734-9.886-111.39-93.85"/><path d="m-7.06 164.46l-12.197 9.665 76.78 96.89-28.755-3.33-.024.019-21.683-2.355 9.53 12.03 90.46 114.16 12.197-9.665-76.82-96.94 28.774 3.354.024-.019 21.702 2.38-9.53-12.03-90.46-114.16"/><path d="m452.77 230.16l5.607 2.451 19.468-44.537 4.151 10.597.011.006 3.184 7.962 2.416-5.528 19.697-54.01c-7.431 14.165-14.61 29.16-21.844 43.642l-4.146-10.609-.011-.006-3.179-7.974-2.416 5.528z"/><path d="m284.94 91.1l4.546 4.096 32.536-36.11.592 11.366.009.008.507 8.56 4.04-4.482 35.743-45.02c-11.523 11.09-23.07 23.05-34.507 34.512l-.584-11.375-.009-.008-.499-8.569-4.04 4.482z"/><path d="m89.06 401.16l-5.469-2.743-21.792 43.45-3.585-10.802-.011-.005-2.759-8.119-2.705 5.392-22.521 52.892c8.168-13.753 16.13-28.343 24.12-42.43l3.58 10.813.011.005 2.754 8.13 2.705-5.392z"/><path d="m224.58 106.02l-3.798 4.798-38.11-30.17 1.315 11.305-.007.01.931 8.525-4.73-3.744-42.764-38.419c13.215 9.01 26.595 18.872 39.788 28.26l-1.325-11.313.007-.01-.94-8.532 4.73 3.744z"/><path d="m410.27 308.78l-3.739-4.843-38.476 29.702 1.453-11.288-.007-.009 1.034-8.513-4.775 3.686-43.23 37.897c13.324-8.852 26.823-18.547 40.13-27.775l-1.462 11.296.007.009-1.044 8.52 4.775-3.686z"/><path d="m157.14 382.13l3.456-5.05 40.11 27.456-2.095-11.187.007-.01-1.519-8.44 4.978 3.408 45.32 35.37c-13.808-8.08-27.839-16.985-41.65-25.438l2.105 11.194-.007.01 1.529 8.447-4.978-3.408z"/><path d="m457.81 362.81l6.02-1.098 8.72 47.818 6.473-9.361.012-.002 4.927-7.02 1.082 5.935 6.768 57.09c-3.979-15.493-7.524-31.731-11.238-47.49l-6.471 9.373-.012.002-4.925 7.03-1.082-5.935z"/></g><g stroke="#000"><use transform="matrix(7.12607 0 0 7.12607-4080.74-9577.47)" xlink:href="#0"/></g><g stroke="#000"><g fill="#fff"><use transform="matrix(7.12607 0 0 7.12607-4218.12-9330.25)" xlink:href="#0"/></g><use transform="matrix(7.12607 0 0 7.12607-3894.87-9410.53)" xlink:href="#0"/></g><g fill="#fff" stroke="none"><path d="m173.19 221.29l-6.04-1.01 7.987-47.946-9.261 6.616-.012-.002-7.01 4.935.991-5.951 12.963-56.01c-1.502 15.926-3.665 32.405-5.507 48.49l9.263-6.628.012.002 7.01-4.947-.991 5.951z"/><path d="m197.06 253.95l2.554 5.56 44.17-20.286-3.955 10.672.006.011-2.923 8.06 5.482-2.518 50.644-27.2c-14.974 5.627-30.31 12.04-45.35 18.04l3.966-10.677-.006-.011 2.934-8.07-5.482 2.518z"/><path d="m336.59 153.06l1.238 5.992 47.601-9.835-6.253 9.51.003.012-4.66 7.198 5.908-1.221 55.46-15.12c-15.856 2.117-32.24 4.915-48.24 7.379l6.265-9.512-.003-.012 4.672-7.201-5.908 1.221z"/><path d="m335.14 209.36l6.01 1.138-9.04 47.758 9.404-6.411.012.003 7.12-4.78-1.122 5.928-14.191 55.708c1.852-15.889 4.376-32.32 6.572-48.36l-9.406 6.423-.012-.003-7.122 4.792 1.122-5.928z"/><path d="m19.21 211.6l2.082-5.754 45.707 16.536-4.83-10.306.005-.012-3.584-7.79 5.673 2.052 52.734 22.889c-15.391-4.36-31.21-9.471-46.694-14.196l4.841 10.31-.005.012 3.595 7.795-5.673-2.052z"/></g><g fill="none" stroke="#000" stroke-width="15.04"><path d="m8.482 7.518l-.965 496.96"/><path d="m504.48 7.518l-.965 496.96"/></g></svg>
