<svg xmlns="http://www.w3.org/2000/svg" xmlns:xlink="http://www.w3.org/1999/xlink" viewBox="0 0 512 512"><path d="m0,0h512v512h-512z"/><g transform="matrix(18.68858 0 0 18.68858-228.76-15891.29)"><path d="m21.588 853.59l-8.426 4.864 6.711-3.139 2.412 1.829 2.413.868 2.789-.214 1.931-.493 2.572-2.043 6.678 3.193-8.426-4.864c-.613 1.257-2.332 2.173-4.343 2.173-2.01 0-3.697-.916-4.31-2.173" fill="#fff"/><g fill="none" stroke="#000"><path d="m18.919 853.97c3.274 5.103 10.637 5.131 13.613.495"/><path d="m14.336 856.97l4.313 7.25"/><path d="m37.461 856.97l-4.313 7.25"/><path d="m19.858 872.27h12.11"/></g></g><g fill="#fff"><path d="m146.05 419.51l-1.263 27.23h222.12l-1.211-27.23z"/><g stroke="#fff"><path d="m27.349 156.93l143.85-83.03" fill="#fff" stroke="#fff" stroke-width="18.689" id="0"/><path d="m90.71 260.71l-65.41-113.39" fill="#fff" stroke="#fff" stroke-width="18.689" id="1"/><path d="m79.968 256.13l70.45-40.911" fill="#fff" stroke="#fff" stroke-width="18.689" id="2"/></g><path d="m141.21 209.76l12.948 13.618 19.238.242 1.355-33.742z" stroke="none"/><g transform="matrix(-1 0 0 1 511.08.02)" stroke="#fff"><use xlink:href="#0"/><use xlink:href="#1"/><use xlink:href="#2"/></g><path d="m369.87 209.79l-12.948 13.618-18.598.242-1.996-33.742z" stroke="none"/><path d="m343 277.66l-13.13-24.25-13.13 24.25 13.13 24.25z"/></g><path d="m158 305.26l-1.126 36.735h198.01l-1.08-36.735z" fill="#000" stroke="none"/><g fill="none" stroke="#fff" stroke-width="18.689"><path d="m357.44 444.46l-9.999-226.89"/><path d="m154.28 445.22l9.999-226.89"/></g><g fill="#fff"><g stroke="none"><path d="m158 295.99l-1.126 16.974h198.01l-1.08-16.974z"/><path d="m158 332.94l-1.126 16.974h198.01l-1.08-16.974z"/></g><path d="m346.89 371.29l-13.13-24.25-13.13 24.25 13.13 24.25z"/><path d="m301.63 404.52l-13.13-24.25-13.13 24.25 13.13 24.25z"/><path d="m222.43 369.87l-13.13-24.25-13.13 24.25 13.13 24.25z"/><path d="m275.47 279.36l-13.13-24.25-13.13 24.25 13.13 24.25z"/><path d="m311.53 248.96l-13.13-24.25-13.13 24.25 13.13 24.25z"/><path d="m211.83 258.15l-13.13-24.25-13.13 24.25 13.13 24.25z"/><path d="m336.99 198.75l-13.13-24.25-13.13 24.25 13.13 24.25z"/><path d="m404.16 200.17l-13.13-24.25-13.13 24.25 13.13 24.25z"/><path d="m445.17 173.3l-13.13-24.25-13.13 24.25 13.13 24.25z"/><path d="m175.06 133.7l-13.13-24.25-13.13 24.25 13.13 24.25z"/><path d="m141.82 190.97l-13.13-24.25-13.13 24.25 13.13 24.25z"/><path d="m255.67 229.16l-13.13-24.25-13.13 24.25 13.13 24.25z"/><path d="m312.94 141.48l-13.13-24.25-13.13 24.25 13.13 24.25z"/></g></svg>
