<svg xmlns="http://www.w3.org/2000/svg" viewBox="0 0 512 512"><path d="m0,0h512v512h-512z"/><path d="m69.938 1652.97l-8.825-1.312-2 8.695-4.477-7.718-8.05 3.855 3.243-8.312-8.03-3.887 8.521-2.647-1.968-8.703 7.382 5.01 5.577-6.965.685 8.896 8.922.018-6.528 6.082z" fill="#fff" transform="matrix(-15.68533 4.20287 4.20287 15.68533-5763.34-25793.66)"/><g transform="matrix(18.68858 0 0 18.68858-9768.48-25890.95)"><g stroke="#000"><path d="m524.37 1403.17l1.982-5.295 13.552-7.224 6.54 3.555 1.799 4.76-15.884 8.455z" fill="#fff"/><g fill="none"><path d="m546.31 1394.6l-13.33 7.06-6.705-3.549"/><path d="m532.49 1407.51l.414-5.978"/></g></g><path d="m542.19 1393.61l-9.188 4.82-2.223-1.188-1.355.718 3.578 1.909 10.557-5.561z"/></g></svg>