<svg xmlns="http://www.w3.org/2000/svg" viewBox="0 0 512 512"><path d="m0,0h512v512h-512z"/><path d="m210.93 357.83c0 32.619-26.443 59.06-59.06 59.06-32.619 0-59.06-26.443-59.06-59.06 0-32.619 26.443-59.06 59.06-59.06 32.619 0 59.06 26.443 59.06 59.06" transform="matrix(1.89443 0 0 1.89443 52.02-510.13)" fill="#fff"/><path transform="matrix(1.57459 0 0 1.57459 100.6-395.68)" d="m210.93 357.83c0 32.619-26.443 59.06-59.06 59.06-32.619 0-59.06-26.443-59.06-59.06 0-32.619 26.443-59.06 59.06-59.06 32.619 0 59.06 26.443 59.06 59.06"/><g fill="#fff"><path d="m163.38 335.58c0 11.861-9.616 21.477-21.477 21.477-11.861 0-21.477-9.616-21.477-21.477 0-11.861 9.616-21.477 21.477-21.477 11.861 0 21.477 9.616 21.477 21.477" transform="matrix(1.53923 0 0 1.53923 96.89-406.19)"/><path d="m126.56 341.72c0 4.448-3.606 8.05-8.05 8.05-4.448 0-8.05-3.606-8.05-8.05 0-4.448 3.606-8.05 8.05-8.05 4.448 0 8.05 3.606 8.05 8.05" transform="matrix(1.89443 0 0 1.89443 52.663-492.33)"/></g><g transform="matrix(18.68858 0 0 18.68858-7718.23-21125.35)"><path fill="#fff" d="m424.13 1143.38l-10.219 10.188v3.313h2.875l10.406-10.406-3.063-3.094"/><g transform="matrix(.70711.70711-.70711.70711 937.98 30.14)"><path fill="#fff" d="m422.41 1149.65h7.225c-1.424 1.788-1.375 3.576 0 5.364h-7.225c1.389-1.788 1.444-3.576 0-5.364"/><g fill="none" stroke="#000"><path d="m421.46 1151.14h9.132"/><path d="m421.46 1153.53h9.132"/><path d="m421.46 1155.5h9.132"/><path d="m421.51 1149.16h9.132"/></g></g><path stroke="#000" fill="none" d="m413.5 1155.86l8.406-8.406"/></g></svg>