<svg xmlns="http://www.w3.org/2000/svg" viewBox="0 0 512 512"><path d="m0,0h512v512h-512z"/><g transform="matrix(18.68858 0 0 18.68858-11122.47-3423.12)"><g transform="matrix(1.0739.49029-.62055 1.06301 197.02-534.67)"><g fill="#fff"><path d="m604.51 401.65c-.819-.854-.682-3.31.536-4.172l24.328 8.03c-2.01 1.562-1.061 3.381.108 4.02l-12.836 4.596z"/><path d="m604.72 397.16l12.724-4.618 12.12 12.779-12.724 4.618-12.12-12.779z" stroke-width=".832" stroke="#000"/></g><g fill="none" stroke="#000" stroke-width=".832"><path d="m617.31 409.66c-1.266 1.523-.975 3.663.062 4.568"/><path d="m605.98 398.65c-1.374 1.639-.626 4.824.489 5.792"/><path d="m615.72 408.55c-1.688 1.647-1.279 4.507-.196 5.287"/></g></g><path d="m618.52 205.76l1.513 1.443-2.146.07" fill="#fff"/><path d="m620.37 206.79l-3.141.493 2.82 1.134"/></g></svg>