<svg xmlns="http://www.w3.org/2000/svg" viewBox="0 0 512 512"><path d="m0,0h512v512h-512z"/>
<g transform="matrix(15 0 0 15 -2144 -3284)">
<path d="m 156.33333,220 c -1,0 -1.33333,0.22533 -1.33333,1.33333 l 0,1 -3,0 c -1.9698,0 -2.33333,0.36354 -2.33333,2.33334 l 0,25 c 0,1.9698 0.36353,2.33333 2.33333,2.33333 l 16,0 c 1.9698,0 2.33333,-0.36353 2.33333,-2.33333 l 0,-25 c 0,-1.9698 -0.36353,-2.33334 -2.33333,-2.33334 l -3,0 0,-1 C 165,220.22533 164.66667,220 163.66667,220 z M 152,227 c 0,-2.66667 -0.33334,-2.33333 2.33333,-2.33333 1.33334,0 10.33334,0 11.33334,0 2.66667,0 2.33333,-0.33334 2.33333,2.33333 0,1.33334 0,19 0,20.33333 0,2.66666 0.33334,2.33334 -2.33333,2.33334 -1.33334,0 -10,0 -11.33334,0 -2.66667,0 -2.33333,0.33332 -2.33333,-2.33334 C 152,246 152,228.33334 152,227 z" fill="#fff" />
</g>
<rect width="190" height="70" ry="10" x="161" y="236" fill="#fff" />
<rect width="70" height="190" ry="10" x="221" y="176" fill="#fff" />
</svg>
